<svg xmlns="http://www.w3.org/2000/svg" width="134" height="138" fill="none" viewBox="0 0 134 138">
    <path fill="#D2EEF6" d="M116.246 26.203l-.649-1.057c-5.47-8.909-15.359-14.265-25.784-13.613-1.338.083-2.67.264-3.981.542-9.479 2.003-17.726 9.08-21.132 18.146-2.01 5.332-2.57 11.472-6.386 15.705-4.967 5.512-13.398 5.681-20.81 5.451-7.411-.23-15.849-.033-20.792 5.498-3.12 3.463-4.098 8.385-3.855 13.025.676 12.278 9.325 23.257 20.344 28.72 11.02 5.464 23.993 5.945 36.053 3.544 16.893-3.369 32.96-12.596 42.619-26.862 9.659-14.265 12.1-33.704 4.373-49.1z"/>
    <path fill="#263238" d="M133.645 131.363c0 .043-29.918.08-66.82.08-36.9 0-66.825-.037-66.825-.08 0-.043 29.912-.082 66.826-.082 36.913 0 66.819.036 66.819.082z"/>
    <path fill="#0097C2" d="M110.116 117.471l2.095 13.776h12.18l2.826-13.577-17.101-.199z"/>
    <path fill="#FAFAFA" d="M125.515 126.297c0 .04-3.121.074-6.971.074-3.849 0-6.967-.034-6.967-.074 0-.039 3.118-.07 6.967-.07 3.85 0 6.971.031 6.971.07zM125.56 125.621c0 .04-3.139.07-7.016.07-3.877 0-7.016-.03-7.016-.07 0-.04 3.142-.071 7.016-.071s7.016.022 7.016.071zM125.539 124.855c0 .04-3.142.074-7.017.074-3.874 0-7.019-.034-7.019-.074 0-.04 3.142-.07 7.019-.07 3.878 0 7.017.03 7.017.07zM113.61 130.472c-.169-.567-.294-1.147-.374-1.733-.122-.581-.2-1.169-.232-1.761.297 1.146.502 2.315.612 3.494h-.006zM114.441 130.313c-.085-.556-.134-1.117-.147-1.679-.063-.564-.089-1.132-.077-1.699.13.553.204 1.119.22 1.687.059.562.06 1.128.004 1.691zM115.95 130.313c-.163-.567-.266-1.149-.306-1.737-.091-.582-.121-1.172-.092-1.761.112.577.191 1.16.236 1.746.086.58.141 1.165.162 1.752zM117.009 130.386c-.117-.58-.174-1.171-.168-1.764-.043-.59-.025-1.183.052-1.77.066.587.096 1.177.089 1.767.044.588.053 1.178.027 1.767zM118.888 130.313c-.092-.553-.135-1.112-.129-1.673-.043-.558-.037-1.12.015-1.678.083.554.121 1.113.114 1.672.046.559.046 1.12 0 1.679zM120.256 130.386c-.087-1.152-.077-2.31.028-3.46.087 1.152.077 2.309-.028 3.46zM121.542 130.202c.022-1.209.139-2.414.349-3.604-.022 1.208-.139 2.414-.349 3.604zM123.199 130.022c.053-1.037.276-2.058.659-3.023-.075.509-.178 1.014-.306 1.513-.089.509-.207 1.014-.353 1.51z"/>
    <path fill="#455A64" d="M122.026 90.288c-.001.023-.007.045-.015.067l-.058.196c-.055.18-.132.429-.23.741-.098.313-.23.717-.358 1.18-.129.462-.307.982-.438 1.57-.132.588-.325 1.225-.475 1.918-.15.692-.306 1.436-.472 2.22-.291 1.568-.557 3.307-.744 5.139-.187 1.831-.26 3.592-.285 5.188 0 .799 0 1.559.022 2.269.021.711.049 1.372.086 1.973.036.6.082 1.148.119 1.626.037.478.08.891.119 1.225.04.334.059.585.08.775v.202c.003.022.003.045 0 .067 0 0 0-.021-.015-.067-.016-.046-.019-.12-.034-.199-.024-.187-.061-.447-.104-.772s-.101-.747-.144-1.225c-.043-.478-.107-1.023-.141-1.626-.034-.604-.086-1.268-.104-1.979-.018-.71-.031-1.473-.034-2.272.016-1.602.095-3.369.273-5.207.177-1.837.459-3.58.759-5.15.163-.785.307-1.532.484-2.221.178-.69.331-1.335.493-1.92.163-.585.322-1.106.46-1.565.138-.46.269-.855.383-1.173.113-.319.192-.558.257-.735l.067-.193c.014-.02.031-.037.049-.052z"/>
    <path fill="#455A64" d="M119.827 98.817c.335-.992 1.004-1.838 1.893-2.392.139-.11.303-.184.478-.216.174-.032.354-.021.523.032.426.206.459.803.334 1.26-.219.77-.709 1.436-1.378 1.876-.595.44-1.338.629-2.071.524M119.089 104.578c.306-1.189 1.262-2.879 2.248-3.617.149-.124.322-.217.509-.273.094-.025.193-.027.288-.006.095.02.184.064.26.126.084.111.14.241.161.379.022.138.008.279-.039.411-.202.867-.641 1.661-1.269 2.292-.627.632-1.418 1.077-2.283 1.285M118.887 109.646c.489-1.135 1.271-2.119 2.266-2.851.107-.098.232-.173.368-.222.137-.048.281-.068.425-.06.429.077.613.613.589 1.038-.08.898-.766 1.617-1.471 2.175-.649.448-1.354.811-2.097 1.078M118.997 113.291c.475-.864 1.134-1.614 1.929-2.196.172-.129.369-.218.579-.26.106-.019.215-.009.315.03.1.038.189.103.255.187.193.285 0 .668-.199.943-.682.948-1.647 1.655-2.756 2.019M118.902 111.812c-.83-1.02-1.753-1.961-2.756-2.812-.156-.131-.355-.272-.548-.208-.074.03-.137.082-.183.147-.045.066-.07.144-.071.224-.001.16.035.318.104.462.33.733.82 1.382 1.435 1.899.615.518 1.339.89 2.117 1.09M118.991 107.067l-2.168-2.627c-.191-.265-.43-.491-.705-.668-.139-.083-.297-.126-.459-.126-.162 0-.32.043-.459.126-.128.103-.224.239-.278.393-.054.154-.064.32-.029.48.077.316.221.611.423.867.421.649.956 1.217 1.577 1.678.637.438 1.225.723 1.982.612M119.291 101.73c-.425-1.266-1.178-2.397-2.181-3.277-.158-.158-.354-.272-.569-.331-.221-.017-.441.044-.622.171-.181.128-.312.314-.371.527-.069.24-.088.492-.054.739.034.247.119.485.25.697.266.422.613.788 1.02 1.075.731.558 1.544.998 2.41 1.305M120.158 96.967c-.208-1.531-1.007-2.808-1.932-4.046-.193-.263-.466-.539-.787-.49-.103.021-.198.068-.278.136-.079.068-.14.155-.176.253-.071.196-.1.405-.085.613.04.927.351 1.822.896 2.573.544.752 1.298 1.326 2.166 1.653M120.765 94.535c-.1-.784-.127-1.577-.08-2.367.051-.795.324-1.56.787-2.208.199-.279.472-.496.787-.628.159-.063.33-.084.499-.061.169.022.33.088.466.19.115.108.205.24.262.388.058.147.081.305.069.463-.026.318-.108.63-.242.919-.579 1.39-1.532 2.928-2.548 3.317"/>
    <path fill="#263238" d="M111.322 96.36c.005.066.005.132 0 .197V97.99c0 .342 0 .734.043 1.163.037.864.119 1.886.251 3.02.132 1.133.334 2.37.613 3.656.278 1.287.594 2.499.918 3.593.325 1.093.668 2.061.98 2.866.147.405.307.763.429 1.081.123.319.245.592.343.812l.218.512c.025.058.048.119.067.18-.038-.052-.07-.108-.095-.168l-.242-.503c-.104-.217-.23-.483-.364-.802-.135-.318-.307-.671-.447-1.075-.325-.802-.671-1.773-1.017-2.863-.346-1.091-.659-2.31-.934-3.602-.276-1.292-.457-2.536-.591-3.675-.135-1.139-.196-2.165-.221-3.029-.021-.432-.018-.824-.021-1.167-.003-.343 0-.64 0-.882s.015-.413.021-.557c.009-.065.025-.13.049-.19z"/>
    <path fill="#263238" d="M111.662 102.642c.014-.748.286-1.467.772-2.036.071-.105.167-.191.279-.25.112-.059.237-.09.364-.09.334.049.487.447.496.784.019.573-.17 1.133-.533 1.577-.31.426-.775.714-1.295.799M112.397 106.722c-.043-.876.239-2.23.753-2.943.074-.121.172-.226.288-.307.059-.038.126-.061.195-.067.069-.007.139.004.204.031.08.058.146.135.19.224.044.089.066.187.064.287.052.634-.073 1.27-.362 1.837s-.73 1.042-1.274 1.373M113.35 110.219c.084-.877.401-1.716.918-2.429.051-.089.12-.168.202-.231.082-.062.176-.108.276-.133.306-.04.554.276.613.582.141.628-.172 1.265-.533 1.795-.345.445-.747.843-1.195 1.185M114.214 112.675c.135-.691.421-1.343.839-1.911.088-.127.204-.232.34-.306.067-.036.143-.053.219-.049.076.005.15.03.213.074.193.15.15.453.067.683-.259.792-.763 1.482-1.439 1.969M113.828 111.689c-.786-.516-1.617-.958-2.484-1.32-.062-.039-.134-.061-.207-.066-.073-.004-.146.01-.213.042-.042.037-.073.086-.089.14-.016.054-.017.111-.003.166.032.114.091.219.172.306.382.429.856.766 1.386.986.53.22 1.103.317 1.676.285M112.866 108.44l-2.043-1.333c-.183-.138-.391-.242-.612-.306-.113-.029-.232-.027-.344.007-.112.034-.212.099-.29.186-.062.098-.095.212-.095.328 0 .116.033.229.095.328.121.199.283.37.475.502.426.352.913.623 1.436.802.234.099.486.151.74.151s.505-.052.739-.151M111.923 104.746c-.562-.77-1.317-1.377-2.19-1.761-.141-.075-.3-.111-.459-.104-.154.037-.29.125-.386.251-.096.125-.146.28-.141.438.005.179.047.354.124.515.076.162.185.305.32.422.27.23.582.403.919.512.616.224 1.264.348 1.92.367M111.488 101.31c-.472-.996-1.29-1.694-2.187-2.337-.083-.082-.185-.14-.298-.169-.112-.029-.23-.028-.342.004-.065.036-.119.089-.159.152-.039.063-.063.135-.068.209-.006.15.019.299.074.438.226.624.631 1.168 1.165 1.562.534.395 1.173.623 1.836.655M111.378 99.54c-.239-.513-.427-1.047-.564-1.596-.136-.55-.115-1.13.061-1.669.072-.239.211-.452.402-.612.093-.078.205-.13.325-.151.12-.022.243-.012.357.028.102.05.192.12.263.208.071.088.122.19.148.3.047.221.057.448.027.671-.094 1.072-.419 2.325-1.019 2.806"/>
    <path fill="#455A64" d="M126.718 96.229c.014.063.02.128.018.193 0 .14 0 .325.022.554.021.23.015.54 0 .882-.016.343 0 .735-.022 1.167-.024.864-.098 1.893-.22 3.029-.123 1.136-.325 2.38-.591 3.675-.267 1.296-.613 2.508-.935 3.602-.321 1.093-.692 2.061-1.016 2.863-.153.405-.307.763-.447 1.078-.141.316-.261.585-.365.803-.104.217-.181.373-.242.499-.025.06-.057.118-.095.171.019-.062.041-.123.068-.183l.217-.512c.098-.22.217-.49.343-.808.126-.319.282-.677.429-1.084.306-.803.646-1.777.98-2.864.334-1.087.649-2.306.919-3.592.269-1.287.459-2.53.612-3.66.153-1.13.214-2.144.251-3.017.031-.432.031-.82.043-1.164.012-.343 0-.64 0-.879v-.557c.005-.066.015-.132.031-.196z"/>
    <path fill="#455A64" d="M126.378 102.507c-.014-.746-.286-1.465-.771-2.033-.072-.105-.167-.191-.279-.251-.112-.06-.237-.092-.364-.092-.334.049-.487.45-.497.787-.019.572.17 1.132.533 1.574.31.428.775.716 1.296.803M125.643 106.584c.043-.879-.239-2.233-.753-2.946-.073-.122-.171-.227-.288-.307-.058-.038-.125-.062-.194-.068-.07-.007-.14.004-.204.032-.08.058-.145.134-.19.223-.044.088-.066.186-.064.285-.05.634.079 1.269.37 1.835.292.565.735 1.038 1.28 1.365M124.706 110.084c-.084-.877-.401-1.715-.919-2.428-.051-.09-.119-.168-.202-.23-.082-.062-.176-.107-.276-.132-.306-.04-.554.276-.612.579-.141.628.171 1.265.533 1.798.336.449.73.852 1.17 1.2M123.827 112.544c-.134-.692-.421-1.345-.839-1.912-.087-.127-.204-.232-.34-.306-.067-.035-.143-.052-.219-.047-.076.004-.15.029-.213.072-.193.153-.15.453-.067.686.258.792.762 1.481 1.439 1.966M124.213 111.554c.786-.514 1.617-.956 2.483-1.32.063-.037.134-.059.207-.063.074-.004.147.011.213.042.042.037.073.086.089.14.016.054.017.112.003.166-.035.109-.094.208-.172.291-.383.428-.857.764-1.387.984-.53.22-1.102.318-1.675.287M125.174 108.305l2.043-1.332c.184-.138.392-.241.612-.307.114-.028.232-.025.344.009.112.034.212.098.29.184.063.099.096.213.096.329 0 .117-.033.231-.096.33-.12.198-.282.369-.474.499-.426.353-.913.625-1.437.802-.234.1-.485.151-.739.151-.255 0-.506-.051-.74-.151M126.118 104.605c.56-.77 1.316-1.377 2.189-1.758.142-.075.3-.111.46-.104.154.037.29.125.386.251.096.126.146.28.141.438-.005.178-.047.353-.124.514-.076.161-.186.304-.32.42-.271.229-.583.404-.919.515-.617.223-1.265.347-1.921.367M126.544 101.178c.471-.998 1.289-1.693 2.186-2.34.187-.134.432-.266.64-.162.066.037.12.089.16.152.04.063.063.135.067.21.006.148-.019.296-.073.434-.226.62-.629 1.16-1.158 1.553-.53.393-1.164.622-1.822.659M126.663 99.393c.237-.514.426-1.048.563-1.596.137-.552.116-1.132-.061-1.672-.072-.239-.211-.451-.401-.613-.094-.076-.206-.127-.326-.148-.119-.021-.242-.011-.357.029-.102.049-.192.12-.263.208-.071.088-.121.19-.147.3-.048.22-.057.445-.028.668.095 1.072.42 2.328 1.02 2.808"/>
    <path fill="#0097C2" d="M108.719 114.742v2.579c0 .269.107.527.297.717.19.19.448.297.717.297h17.634c.269 0 .528-.107.718-.297.191-.19.298-.448.299-.717v-2.579h-19.665z"/>
    <path fill="#000" d="M110.248 118.335l.147.821 16.271 1.157.414-1.978h-16.832z" opacity=".4"/>
    <path fill="#263238" d="M42.104 27.425c-.919-1.437-.242-3.917-.738-5.547-.496-1.629-.429-2.636-1.492-3.953-1.077-1.226-2.493-2.105-4.07-2.527-1.088-.227-2.213-.22-3.298.023-1.086.242-2.107.714-2.995 1.383-.92.664-1.838 1.412-2.401 2.4-.696 1.204-.803 2.564-.77 3.982l-.088-.092c-.68-.489-1.496-.753-2.334-.756-.392-.02-.783.073-1.123.27-.168.1-.306.244-.397.417-.091.173-.133.367-.121.562.08.613.756.92 1.335 1.127-.343.157-.613.438-.755.787-.143.348-.147.738-.012 1.09.135.352.4.639.74.802.338.164.728.191 1.087.078.824-.23 1.262-1.078 1.78-1.798.087 1.176-.047 2.359-.396 3.485-.465 1.311-1.424 2.527-1.317 3.911.05.613.306 1.244.2 1.86-.19.952-1.226 1.484-1.697 2.327-.647 1.114-.203 2.615.713 3.522.916.906 2.193 1.344 3.44 1.669 2.955.772 6.318 1.017 8.86-.677l7.123-7.265c.297-1.828.343-4.526-1.274-7.08z"/>
    <path fill="#0097C2" d="M39.973 127.189v.349s6.03 2.223 6.125 3.353l-11.84.282.068-3.944c.889.399 1.853.602 2.828.595.974-.007 1.936-.224 2.82-.635z"/>
    <path fill="#fff" d="M35.565 128.46c-.11.039-.203.118-.26.222-.056.103-.072.223-.046.338.033.114.109.211.211.271.103.06.225.078.34.051.12-.04.22-.123.282-.233.063-.109.082-.238.055-.361-.047-.116-.137-.209-.251-.26-.114-.051-.244-.055-.361-.013M34.27 131.173v-.949l11.331.076s.533.218.48.591l-11.812.282z" opacity=".6"/>
    <path fill="#263238" d="M40.025 127.572c0 .058-.288.092-.567.281-.279.19-.425.441-.48.42-.056-.021.024-.358.367-.585.343-.227.692-.171.68-.116zM41.28 128.056c.016.055-.232.159-.425.41-.193.251-.239.508-.306.505-.068-.003-.105-.324.14-.631.245-.306.589-.34.592-.284zM42.015 129.525c-.052 0-.14-.272 0-.594.14-.321.41-.453.435-.404.024.049-.138.221-.251.484-.113.263-.123.508-.184.514zM27.046 65.29l19.683 4.472-.37 2.493-5.632 44.435-3.893-.089-.401 3.28-6.168.092s-.919-11.083-1.16-15.04c-.243-3.957-.371-10.753-1.113-14.955-.74-4.202-5.711-16.697-.946-24.687z"/>
    <path fill="#EB996E" d="M40.374 117.734c-.046.35-.919 10.125-.919 10.125h-4.468l-.784-10.085 6.171-.04z"/>
    <path fill="#FAA" d="M36.432 119.603c-.042.349-.918 10.125-.918 10.125h-4.466l-.784-10.085 6.168-.04z"/>
    <path fill="#455A64" d="M41.418 114.868l-.579 3.155-4.333-.052.095-3.051 4.817-.052z"/>
    <path fill="#455A64" d="M38.785 73.143c.003.038.003.076 0 .113v.334c0 .306-.025.735-.043 1.283-.046 1.127-.11 2.738-.193 4.726-.178 3.997-.423 9.494-.692 15.585-.27 6.092-.551 11.592-.741 15.589l-.242 4.723c-.03.548-.055.98-.074 1.283l-.024.334c.003.037.003.075 0 .113-.004-.039-.004-.078 0-.116v-.334c0-.306.024-.732.043-1.283.045-1.127.11-2.738.192-4.726l.693-15.585c.27-6.092.55-11.59.74-15.586l.243-4.723c.03-.548.055-.98.073-1.283 0-.14.019-.25.025-.334-.004-.037-.004-.075 0-.113zM37.275 117.734l-.579 3.155h-6.793l-.48-3.05 7.852-.105z"/>
    <path fill="#0097C2" d="M31.036 128.27s3.145 2.232 4.667.306l.398.937 1.789 6.671c.061.208.044.432-.049.629-.092.197-.254.353-.453.439-.154.063-.323.079-.485.048-.163-.031-.314-.108-.434-.222-1.293-1.225-6.03-5.779-5.985-6.398l.019-1.635c.002-.167.054-.328.148-.465s.227-.243.382-.304l.003-.006z"/>
    <path fill="#fff" d="M37.232 137.292l-6.738-7.188v.368c-.01.146.013.292.066.429.053.136.135.26.24.361.549.735 2.059 2.383 5.642 5.819.102.099.227.171.364.21.137.038.281.042.42.01l.006-.009zM31.474 129.039c.104.076.176.187.203.313.027.126.007.257-.056.37-.072.107-.182.182-.308.211-.126.028-.258.007-.37-.058-.11-.081-.186-.2-.213-.334-.028-.134-.005-.274.064-.392.087-.104.21-.17.344-.184.134-.015.268.022.376.104" opacity=".6"/>
    <path fill="#263238" d="M35.278 133.611c.049.024.236-.42.738-.659.309-.123.638-.188.97-.189 0-.022-.097-.086-.305-.114-.26-.029-.524.019-.757.138-.234.115-.43.295-.566.518-.08.174-.08.3-.08.306zM35.89 134.741c.24-.14.49-.262.748-.367.272-.054.547-.091.824-.111.024-.043-.383-.22-.88-.067-.495.153-.731.521-.691.545zM34.163 132.168c.04.04.454-.389 1.112-.643.409-.135.828-.237 1.253-.306 0-.046-.613-.162-1.32.123-.708.284-1.088.802-1.045.826zM34.013 130.138c.022.049.487-.147 1.093-.172.607-.024 1.09.12 1.11.068.017-.052-.463-.288-1.116-.254-.652.033-1.114.318-1.087.358z"/>
    <path fill="#263238" d="M35.453 129.948c.008-.104-.008-.209-.046-.306-.082-.284-.22-.548-.404-.778-.122-.178-.297-.312-.5-.383-.07-.016-.142-.01-.21.016-.066.026-.123.072-.163.131-.068.122-.09.265-.062.401.071.276.236.519.466.687.23.167.512.25.796.232.279-.025.544-.133.762-.308.218-.175.379-.411.463-.678.021-.068.027-.139.018-.209-.009-.071-.032-.138-.07-.198-.044-.057-.105-.099-.175-.119-.069-.02-.143-.018-.21.005-.197.084-.367.218-.494.389-.191.222-.342.476-.444.751-.048.094-.074.199-.073.306.154-.354.36-.682.612-.974.117-.143.268-.254.438-.325.037-.014.077-.016.115-.006.038.011.072.033.096.064.022.042.034.087.037.133.003.047-.003.093-.018.137-.08.229-.224.43-.416.579-.19.15-.42.241-.662.263-.24.015-.478-.052-.675-.19-.197-.138-.341-.339-.41-.569-.022-.095-.01-.194.031-.282.021-.034.053-.06.09-.075.036-.016.077-.019.116-.011.17.058.318.165.428.306.248.3.439.643.564 1.011z"/>
    <path fill="#FFBE9D" d="M67.377 38.107s1.65-2.358 2.009-2.557c.358-.2 3.396-.8 3.63-.686.232.113 3.616 1.255 3.153 1.605-.462.349-2.82-.475-2.82-.475l-.35.11s2.044.662 2.45.986c.408.325.15.775-.226.674-.376-.101-2.144-.738-2.263-.68-.12.058 1.905.802 2.107.97.276.228.224.77-.156.684-.224-.052-2.113-.87-2.113-.87.548.307 1.08.643 1.592 1.008.2.26-.04.57-.367.444-.224-.089-1.247-.787-1.547-.919 0 0-.306.03-.658.579-.353.548-2.083 1.681-2.083 1.681l-1.167.69-1.96-2.714.769-.53z"/>
    <path fill="#FFBE9D" d="M68.167 38.27c.105.102.24.17.384.192.145.023.294 0 .425-.067.27-.11.496-.306.76-.44.783-.387 1.785-.111 2.55-.534.108-.061.22-.165.184-.285-.037-.119-.165-.14-.278-.153l-2.876-.38"/>
    <path fill="#EB996E" d="M69.315 36.603c.102-.014.205-.014.307 0l.851.09 1.262.146.361.046c.075-.002.15.01.22.036.07.026.133.066.188.117.027.04.042.088.042.137 0 .048-.015.096-.042.136-.043.068-.102.125-.172.165-.126.069-.258.124-.395.166-.513.098-1.031.162-1.553.19-.217.027-.428.087-.628.177-.186.086-.346.202-.505.306-.122.087-.261.147-.408.174-.147.028-.298.023-.443-.014-.206-.077-.258-.202-.248-.2.08.061.17.107.266.136.135.022.274.016.407-.017.132-.034.257-.095.365-.18.163-.11.332-.213.505-.306.211-.101.436-.17.668-.202.514-.037 1.025-.103 1.531-.199.124-.038.244-.088.358-.15.105-.058.166-.153.12-.2-.046-.045-.172-.076-.306-.091l-.365-.052-1.255-.184c-.356-.052-.647-.1-.846-.138-.098-.017-.194-.047-.285-.089zM76.16 36.478c-.213.069-.438.095-.66.076-.243-.005-.484-.032-.72-.082-.264-.07-.546-.16-.846-.248l-.634-.196h.04c-.517.12-1.044.2-1.574.236.498-.174 1.01-.305 1.531-.392h.04l.63.186.834.258c.227.056.459.095.692.116.413.04.665.018.668.046z"/>
    <path fill="#0097C2" d="M42.23 33.872s3.7-.2 5.558.713c1.86.913 10.049 6.545 10.049 6.545l8.391-3.109 2.97 4.028-7.276 5.298c-.857.58-1.847.936-2.878 1.034-1.03.098-2.07-.065-3.02-.474l-9.415-3.739-4.38-10.296z"/>
    <path fill="#263238" d="M58.32 45.084c-.122-.161-.217-.341-.281-.533-.18-.455-.299-.932-.352-1.418-.053-.486-.04-.976.04-1.458.02-.202.075-.4.159-.585-.085.672-.103 1.351-.056 2.027.1.67.264 1.329.49 1.967z"/>
    <path fill="#000" d="M57.809 41.185c-.346.306-.42.805-.447 1.265-.041.686-.024 1.375.052 2.058.02.377.119.745.29 1.081.03.064.073.12.126.167.053.046.114.081.181.103.239.055.453-.203.46-.45-.019-.245-.095-.481-.224-.69-.513-1.03-.663-2.203-.426-3.329" opacity=".3"/>
    <path fill="#0097C2" d="M29.192 35.339c-.18.06-2.168 1.353-3.733 2.382-.534.352-.925.882-1.105 1.496-.18.613-.135 1.27.125 1.855l3.884 8.728 1.36 5.29-4.408 11.582.306 1.286 21.111 1.804 1.029-2.425-1.225-11.026V42.468l-3.369-8.627-5.8.074-8.174 1.424z"/>
    <path fill="#000" d="M45.715 34.49c.129-.002.255.034.364.103.109.07.195.169.248.286.103.241.156.5.156.763.248 3.748.105 8.33.046 12.18l.264 11.873c-1.127-2.1-1.225-4.593-1.33-6.958-.075-2.142-.154-4.285-.235-6.431-.132-3.553.043-7.105-.09-10.658-.005-.466.102-1.1.577-1.158zM27.245 61.487c.113-.373.407-1.069.407-1.069 1.066-1.742 1.878-4.621 1.75-6.658 0 0-.5-2.104-1.04-4.076l-.566-1.29.037.019c.953.438 1.531 1.743 1.666 2.78.135 1.039.26 2.227 1.05 2.94.518.472 1.244.65 1.807 1.067.33.246.596.567.778.937.182.37.273.776.267 1.188 0 .343-.07.744.177.986.307.288.77.138 1.152 0 .383-.138.9-.22 1.112.129.062.143.074.303.033.454-.04.15-.131.283-.257.376-.257.176-.527.332-.808.465-.665.401-1.045 1.136-1.605 1.672-1.112 1.072-2.781 1.26-4.318 1.388-.454.04-.968.055-1.29-.267-.145-.127-.254-.29-.316-.473s-.074-.379-.036-.568z" opacity=".3"/>
    <path fill="#455A64" d="M25.477 69.863c0-.028.377.083.98.18.788.124 1.589.14 2.38.047.793-.097 1.567-.303 2.303-.613.564-.236.895-.429.92-.404.024.024-.071.064-.218.16-.207.13-.422.246-.643.348-1.484.688-3.147.887-4.75.567-.24-.047-.477-.11-.708-.19-.092-.018-.181-.05-.264-.095z"/>
    <path fill="#FAA" d="M38.953 58.403l-.11-.169s.643.882.383 1.593c-.037.105-.096.2-.172.282 0 .199-.05.395-.149.568-.098.174-.24.318-.411.42-.172.102-.367.157-.566.16-.2.004-.396-.045-.57-.14-.093-.036-.171-.098-.226-.18-.055-.082-.083-.179-.08-.277.029-.099.082-.188.155-.26.036-.041.068-.085.095-.132l-.787-.153s-1.908-.117-2.422-1.137c-.083-.162-4.175.16-4.175.16l.307-4.615 6.848.918s4.848.56 5.32.558c.074-.01.15-.002.22.023.072.026.135.068.186.123.051.055.088.122.108.195.02.072.022.149.006.222-.018.306-.254.435-.723.453-.159 0-3.062.102-3.062.102.245.36.557.943.174 1.154l-.349.132z"/>
    <path fill="#EB996E" d="M37.562 58.948c0-.021.132-.024.346 0 .285.024.559.116.8.27.125.078.23.185.307.311.077.127.123.27.134.418 0 .23-.09.349-.105.34-.015-.01.025-.135 0-.328-.023-.126-.072-.245-.143-.35-.072-.106-.165-.195-.273-.263-.225-.139-.473-.237-.732-.29-.211-.05-.34-.086-.334-.108zM37.62 57.506c0-.019.16-.022.396.058.312.105.592.287.814.53.222.241.378.535.454.854.058.245.043.401.024.401-.122-.418-.325-.808-.597-1.148-.314-.302-.684-.538-1.09-.695zM38.178 56.774c0-.043.278-.062.588.06.309.123.505.307.477.35-.027.043-.248-.092-.536-.202-.288-.11-.532-.165-.53-.208zM38.13 60.513c-.038.021-.157-.12-.36-.184-.201-.064-.382-.024-.4-.067-.019-.043.183-.172.45-.083.266.089.355.322.31.334z"/>
    <path fill="#0097C2" d="M27.897 48.247l-1.96 5.182 7.304 1.109-.361 6.19-10.04-.426c-2.51-.104-4.63-2.068-4.74-4.594v-.33c.04-1.839 3.252-10.181 4.725-14.49.464-1.302 1.364-2.404 2.548-3.118l2.524 10.477z"/>
    <path fill="#263238" d="M32.88 60.727c-.012-.156-.012-.314 0-.471.015-.328.03-.766.055-1.302l.23-4.42.067.084-1.531-.22c-2.116-.307-4.027-.595-5.412-.81l-1.635-.263-.444-.08c-.053-.005-.105-.019-.153-.04.052-.005.104-.005.156 0l.45.05 1.642.211c1.39.187 3.304.456 5.417.766l1.532.22h.07v.07c-.113 1.75-.214 3.287-.285 4.417-.043.533-.076.97-.1 1.298-.004.165-.023.33-.059.49zM25.517 40.285s.083.058.212.187c.181.18.35.374.505.578 1.042 1.357 1.639 3.002 1.71 4.71.018.257.018.513 0 .77-.002.093-.015.187-.04.278-.031 0 0-.401-.059-1.041-.13-1.674-.713-3.282-1.687-4.65-.374-.523-.662-.814-.64-.832zM46.416 42.949c-.024-.263-.024-.527 0-.79.019-.487.04-1.16.043-1.902.003-.741-.018-1.415-.033-1.902-.022-.263-.022-.527 0-.79.068.256.106.52.113.784.046.487.08 1.16.08 1.908 0 .747-.043 1.421-.09 1.908-.007.265-.045.528-.113.784zM29.765 63.864c.172.05.34.114.502.19.307.134.781.321 1.354.545 1.497.577 3.024 1.071 4.576 1.479 1.553.401 3.127.714 4.716.937.613.086 1.106.147 1.449.187.178.013.355.038.53.076-.18.01-.359.006-.537-.015-.346-.018-.842-.064-1.457-.135-1.6-.193-3.185-.493-4.744-.897-1.565-.406-3.1-.917-4.594-1.531-.57-.236-1.026-.438-1.338-.591-.16-.07-.312-.151-.457-.245zM43.047 45.228c0 .06.018.12.052.17.034.05.082.09.137.113.056.023.118.029.177.017.06-.012.114-.041.157-.084.043-.043.072-.097.084-.157.012-.059.006-.12-.017-.177-.024-.056-.063-.103-.113-.137-.05-.034-.11-.052-.17-.052-.082 0-.16.033-.217.09-.057.057-.09.135-.09.217zM63.867 42.95c0 .06.018.119.052.17.033.05.081.089.137.112.056.023.118.03.177.017.06-.011.114-.04.157-.083.043-.043.072-.098.084-.157.011-.06.005-.121-.018-.177-.023-.056-.062-.104-.113-.138-.05-.033-.11-.051-.17-.051-.081 0-.159.032-.216.09-.058.057-.09.135-.09.216zM54.199 41.8c-.014.047-.018.095-.01.143.008.047.027.092.056.13.028.039.065.07.108.092.043.022.09.033.138.033.048 0 .096-.011.139-.033.042-.022.08-.053.108-.092.028-.038.047-.083.055-.13.008-.048.005-.096-.01-.142-.019-.063-.057-.117-.11-.156-.053-.039-.116-.06-.182-.06-.065 0-.129.021-.181.06-.053.039-.092.093-.111.156zM49.18 37.565c0 .06.017.12.051.17.034.05.081.09.137.113.056.023.118.03.177.017.06-.011.114-.04.157-.083.043-.043.072-.098.084-.157.012-.06.006-.121-.017-.177-.023-.056-.063-.104-.113-.138-.05-.033-.11-.051-.17-.051-.081 0-.16.032-.217.09-.057.057-.09.135-.09.216zM42.359 49.674c0 .061.018.12.051.17.034.05.082.09.138.113.056.024.117.03.177.018.06-.012.114-.041.157-.084.043-.043.072-.097.084-.157.011-.06.005-.12-.018-.177-.023-.056-.062-.104-.113-.137-.05-.034-.11-.052-.17-.052-.081 0-.159.032-.216.09-.058.057-.09.135-.09.216zM60.023 42.095c0 .06.018.12.052.17.034.05.081.09.137.112.056.024.118.03.177.018.06-.012.114-.041.157-.084.043-.043.072-.097.084-.157.012-.06.006-.12-.017-.177-.023-.056-.063-.103-.113-.137-.05-.034-.11-.052-.17-.052-.081 0-.16.033-.217.09-.057.057-.09.135-.09.217zM55.715 46.808c-.015.046-.018.094-.01.142.008.047.027.092.055.13.029.04.066.07.109.092.043.022.09.033.138.033.048 0 .095-.011.138-.033.043-.021.08-.053.108-.092.029-.038.048-.083.056-.13.008-.048.005-.096-.01-.142-.019-.063-.058-.117-.11-.156-.053-.039-.117-.06-.182-.06-.065 0-.13.021-.182.06-.052.039-.091.093-.11.156zM36.463 46.223c0 .06.018.12.052.17.034.05.081.09.137.113.056.023.118.03.177.017.06-.011.114-.04.157-.083.043-.043.072-.098.084-.157.012-.06.006-.121-.017-.177-.024-.056-.063-.104-.113-.138-.05-.033-.11-.051-.17-.051-.082 0-.16.032-.217.09-.057.057-.09.135-.09.216zM35.303 42.095c.162 0 .294-.132.294-.294 0-.163-.132-.294-.294-.294-.163 0-.294.131-.294.294 0 .162.131.294.294.294zM40.527 39.96c0 .06.018.12.052.17.033.05.081.09.137.113.056.023.118.03.177.017.06-.011.114-.04.157-.083.043-.043.072-.098.084-.157.011-.06.005-.121-.018-.177-.023-.056-.062-.104-.112-.138-.05-.033-.11-.051-.17-.051-.082 0-.16.032-.217.09-.058.057-.09.135-.09.216zM50.284 42.095c0 .06.018.12.052.17.033.05.081.09.137.112.056.024.118.03.177.018.06-.012.114-.041.157-.084.043-.043.072-.097.084-.157.012-.06.006-.12-.018-.177-.023-.056-.062-.103-.112-.137-.05-.034-.11-.052-.17-.052-.082 0-.16.033-.217.09-.058.057-.09.135-.09.217zM41.936 36.395c.163 0 .294-.132.294-.294 0-.162-.131-.294-.294-.294-.162 0-.294.132-.294.294 0 .163.132.294.294.294zM31.474 43.243c.163 0 .294-.132.294-.294 0-.162-.131-.294-.294-.294-.162 0-.294.132-.294.294 0 .162.132.294.294.294zM36.463 51.825c0 .06.018.12.052.17.034.05.081.09.137.113.056.023.118.029.177.017.06-.012.114-.041.157-.084.043-.043.072-.097.084-.157.012-.06.006-.12-.017-.177-.024-.056-.063-.103-.113-.137-.05-.034-.11-.052-.17-.052-.082 0-.16.033-.217.09-.057.057-.09.135-.09.217zM44.842 67.214c.163 0 .294-.132.294-.294 0-.162-.132-.294-.294-.294-.162 0-.294.132-.294.294 0 .162.132.294.294.294zM37.05 63.413c.163 0 .295-.131.295-.294 0-.162-.132-.294-.294-.294-.163 0-.294.132-.294.294 0 .163.132.294.294.294zM28.36 66.381c0 .06.017.12.051.17.034.05.081.09.137.113.056.023.118.03.177.017.06-.011.114-.04.157-.084.043-.042.072-.097.084-.156.012-.06.006-.121-.017-.177-.024-.056-.063-.104-.113-.138-.05-.033-.11-.051-.17-.051-.082 0-.16.032-.217.09-.057.057-.09.135-.09.216zM39.133 60.24c0 .061.018.12.052.17.034.051.082.09.138.114.056.023.117.029.177.017.059-.012.114-.041.156-.084.043-.043.072-.097.084-.157.012-.06.006-.12-.017-.177-.023-.056-.063-.103-.113-.137-.05-.034-.11-.052-.17-.052-.081 0-.16.033-.217.09-.057.057-.09.135-.09.217zM23.888 42.597c.163 0 .294-.132.294-.294 0-.163-.131-.294-.294-.294-.162 0-.294.131-.294.294 0 .162.132.294.294.294zM23.594 56.97c0 .06.018.12.052.17.034.05.081.09.137.112.056.024.118.03.177.018.06-.012.114-.041.157-.084.043-.043.072-.097.084-.157.012-.06.006-.12-.018-.177-.023-.056-.062-.103-.112-.137-.05-.034-.11-.052-.17-.052-.082 0-.16.033-.217.09-.058.057-.09.135-.09.217zM28.36 58.743c0 .06.017.12.051.17.034.05.081.09.137.113.056.023.118.029.177.017.06-.012.114-.04.157-.084.043-.043.072-.097.084-.157.012-.059.006-.12-.017-.176-.024-.056-.063-.104-.113-.138-.05-.033-.11-.051-.17-.051-.082 0-.16.032-.217.09-.057.057-.09.135-.09.216z"/>
    <path fill="#263238" d="M30.889 55.358c.02.063.058.117.11.156.053.039.117.06.183.06.065 0 .129-.021.181-.06.053-.039.092-.093.111-.156.014-.045.017-.094.01-.141-.009-.047-.027-.092-.056-.13-.028-.04-.066-.071-.108-.093-.043-.021-.09-.033-.139-.033-.047 0-.095.012-.138.033-.043.022-.08.053-.108.092-.029.039-.047.084-.055.13-.008.048-.005.097.009.142zM25.196 46.223c0 .06.018.12.051.17.034.05.082.09.138.113.056.023.117.03.177.017.06-.011.114-.04.157-.083.042-.043.072-.098.083-.157.012-.06.006-.121-.017-.177-.023-.056-.062-.104-.113-.138-.05-.033-.11-.051-.17-.051-.081 0-.16.032-.216.09-.058.057-.09.135-.09.216zM44.842 62.216c.163 0 .294-.132.294-.294 0-.162-.132-.294-.294-.294-.162 0-.294.132-.294.294 0 .162.132.294.294.294zM21.499 50.795c.162 0 .294-.131.294-.294 0-.162-.132-.293-.294-.293-.162 0-.294.131-.294.294 0 .162.132.293.294.293zM19.64 55.359c0 .06.018.12.052.17.033.05.081.09.137.113.056.023.118.029.177.017.06-.012.114-.04.157-.084.043-.043.072-.097.084-.157.012-.059.006-.12-.018-.176-.023-.056-.062-.104-.113-.138-.05-.034-.109-.051-.17-.051-.08 0-.159.032-.216.09-.058.057-.09.135-.09.216zM30.889 48.116c.02.062.058.117.11.156.053.038.117.06.183.06.065 0 .129-.022.181-.06.053-.04.092-.094.111-.156.014-.046.017-.094.01-.142-.009-.047-.027-.092-.056-.13-.028-.04-.066-.07-.108-.092-.043-.022-.09-.033-.139-.033-.047 0-.095.011-.138.033-.043.021-.08.053-.108.091-.029.039-.047.084-.055.131-.008.048-.005.096.009.142z"/>
    <path fill="#000" d="M32.494 37.14c-.18-.564-.429-.678-.965-.935-.664-.326-1.29-.726-1.865-1.191L27.01 36.7c-.306 1.13-.334 2.45.208 3.47s1.712 1.78 2.864 1.599c.737-.142 1.39-.565 1.822-1.18.427-.609.716-1.304.848-2.036.092-.383-.14-1.044-.257-1.415z" opacity=".3"/>
    <path fill="#FAA" d="M40.178 21.245c-.334-2-1.92-4.33-3.905-3.911L30.18 19.56c-.289.064-.543.233-.713.474-.17.242-.244.538-.206.83l2.223 15.026h-.043s1.853 4.113 5.862 2.398c.793-.343 1.078-1.277 1.149-2.217h.042c0-.11-.018-.212-.027-.307.01-.695-.052-1.39-.187-2.073-.11-1.225-.162-1.721-.16-1.709.004.012 2.528-.692 2.714-4.1.065-1.691-.3-4.417-.655-6.637z"/>
    <path fill="#263238" d="M39.538 23.615c.012.112-.02.224-.089.313-.07.088-.17.146-.282.162-.054.01-.11.008-.163-.004-.054-.012-.104-.035-.15-.067-.044-.032-.082-.072-.11-.119-.03-.047-.049-.099-.057-.153-.014-.112.018-.224.086-.313.069-.088.17-.147.281-.162.054-.01.11-.01.164.003.054.012.105.034.15.066.046.032.084.073.113.12.029.047.048.1.057.154zM39.715 22.727c-.046.061-.398-.144-.86-.095-.463.049-.778.306-.833.263-.055-.043 0-.131.153-.254.185-.159.415-.256.658-.279.242-.025.485.026.696.147.153.095.211.19.186.218zM35.177 24.157c.012.112-.02.225-.089.314-.069.089-.17.148-.282.164-.054.01-.11.008-.163-.004-.053-.012-.104-.035-.149-.067s-.083-.072-.112-.119c-.029-.047-.048-.099-.056-.153-.013-.112.018-.225.086-.314.069-.089.17-.148.281-.164.055-.01.11-.01.164.003.054.012.105.034.15.066.046.032.084.073.113.12.03.047.049.1.057.154zM35.177 23.281c-.05.061-.398-.144-.86-.095-.463.05-.779.306-.837.264-.058-.043.019-.129.153-.255.187-.158.418-.255.662-.278.24-.026.483.025.692.147.153.095.211.19.19.217zM37.208 26.543c.235-.103.483-.175.738-.215.116-.024.226-.058.239-.14-.004-.124-.044-.243-.117-.343-.139-.276-.286-.564-.44-.864-.613-1.225-1.079-2.248-1.027-2.273.052-.024.591.953 1.207 2.184.15.306.306.594.429.87.088.136.126.298.107.46-.013.042-.036.082-.066.115-.03.034-.067.06-.109.077-.064.023-.131.04-.199.05-.25.057-.506.084-.762.079z"/>
    <path fill="#EB996E" d="M38.093 31.985c-1.577.186-3.175-.068-4.616-.735 0 0 1.326 2.19 4.652 1.531l-.036-.796zM37.115 27.676c-.1-.101-.223-.176-.359-.217-.136-.04-.28-.046-.419-.016-.101.02-.197.061-.283.119-.086.058-.159.132-.216.218-.054.083-.081.181-.077.28.004.1.038.196.099.274.081.075.183.123.292.14.109.016.22 0 .32-.048.21-.1.398-.24.554-.413.05-.042.09-.093.12-.15.014-.027.02-.058.017-.089-.004-.03-.016-.059-.035-.083"/>
    <path fill="#263238" d="M35.89 27.002c.074 0 .126.49.594.803.47.312.996.202 1.005.272.01.07-.107.107-.334.138-.293.035-.59-.035-.836-.2-.238-.155-.406-.398-.468-.676-.05-.205-.007-.337.04-.337zM35.3 22.451c-.031.129-.5.12-1.036.24-.536.119-.962.305-1.044.207-.037-.049.027-.174.19-.306.22-.176.477-.298.753-.355.274-.064.559-.064.833 0 .208.064.319.153.303.214zM39.41 21.407c-.074.113-.402.037-.788.07-.386.034-.698.144-.787.043-.037-.052 0-.162.135-.275.175-.142.389-.225.613-.24.225-.018.45.033.646.148.153.095.211.199.18.254zM37.027 16.482c.923.137 1.772.589 2.401 1.278.63.69 1.003 1.575 1.056 2.507l-1.904.096-.395-.993c.232.613-.209 1.33-.8 1.63-.59.3-1.286.306-1.95.281l-.123-.851c-.032.287-.14.561-.314.793-.173.231-.405.412-.672.524-.536.216-1.105.335-1.682.352-.578.014-1.148.136-1.681.358-.222-.531-.313-1.108-.264-1.682.05-.574.236-1.127.546-1.613.635-.97 1.576-1.7 2.673-2.073 1.092-.368 2.242-.535 3.394-.493"/>
    <path fill="#263238" d="M27.554 37.063c.184-.98.515-1.966.365-2.95-.141-.918-.677-1.837-.334-2.682.117-.252.299-.468.527-.625.228-.158.495-.252.771-.273-1.286-2.1-1.482-4.759-1.39-7.255.002-.811.113-1.619.33-2.4.225-.788.714-1.472 1.385-1.94.337-.226.73-.357 1.135-.377.406-.021.81.07 1.168.261l.53.043c.446 1.278.384 2.678-.175 3.91-.205.451-.48.892-.511 1.385-.058 1.054 1.004 1.902 1.004 2.953 0 .83-.376 1.617-.756 2.355-.242.465-.33.738.083 1.283.248.328 2.051 4.784.695 7.277-.178.867-.68 1.633-1.403 2.143-.919.582-2.23.54-2.95-.257-.667-.747-.66-1.871-.474-2.851zM9.613 6.909V7.46c0 .365 0 .876.018 1.531 0 1.314.019 3.164.034 5.381l-.068-.07h7.449c.018-.018-.15.15-.08.077v-2.031-1.923-3.516l.07.07-5.34-.036-1.532-.019h-.548c.043-.005.086-.005.128 0h.393l1.503-.018 5.424-.034h.067v7.519c.07-.07-.098.098-.08.082H9.553v-.067c.015-2.236.027-4.1.033-5.424 0-.637.016-1.145.019-1.507v-.392c-.005-.058-.002-.117.009-.174z"/>
    <path fill="#0097C2" d="M18.614 5.246c.104.082-1.531 2.223-3.614 4.78l-1.255 1.507-.15.181-.175-.153c-1.755-1.559-2.965-2.723-2.897-2.8.067-.076 1.396.95 3.194 2.45l-.306.028 1.225-1.531c2.091-2.542 3.877-4.548 3.978-4.462z"/>
    <path fill="#455A64" d="M13.472.006c-.06-.008-.123-.008-.184 0h-.548c-.12 0-.254 0-.401.018l-.48.067-.561.08-.613.156c-1.08.272-2.107.72-3.041 1.326-1.245.797-2.314 1.84-3.142 3.063C3.506 6.213 2.893 7.93 2.716 9.72c-.042.489-.052.98-.03 1.47.018.248 0 .5.049.75.049.252.076.503.116.757.191 1.042.535 2.05 1.02 2.992.513.986 1.166 1.893 1.939 2.692.83.817 1.783 1.5 2.823 2.024 1.074.55 2.236.906 3.433 1.054.305.046.612.071.92.077.305.022.612.028.918.018.618-.028 1.232-.107 1.838-.236 1.315-.285 2.566-.811 3.69-1.553h-.113l3.757 1.507.224.089-.064-.23c-.38-1.378-.749-2.717-1.106-4.018l-.018.101c1.02-1.352 1.707-2.926 2.006-4.594.144-.775.193-1.565.147-2.352-.01-.378-.045-.756-.108-1.13-.027-.187-.058-.367-.085-.551-.028-.184-.09-.355-.132-.533-.63-2.462-2.112-4.622-4.183-6.094-.768-.552-1.608-.996-2.497-1.317L16.7.44l-.533-.128-.49-.123c-.156-.027-.306-.046-.447-.067-.285-.037-.536-.086-.753-.095l-.552-.021h-.34c-.037-.005-.075-.005-.113 0 .037.007.075.012.113.015l.337.024.548.04c.218 0 .466.07.748.114 2.038.352 3.931 1.288 5.448 2.695 1.517 1.407 2.592 3.224 3.096 5.23.04.172.095.347.126.524l.083.54c.059.366.092.736.098 1.108.043.772-.009 1.546-.153 2.306-.299 1.632-.976 3.171-1.979 4.493l-.034.043v.055c.356 1.298.721 2.639 1.097 4.021l.16-.144-3.756-1.513-.058-.021-.055.033c-1.096.732-2.32 1.251-3.608 1.532-.595.128-1.2.205-1.81.23-.306.017-.612.017-.918 0-.3-.006-.599-.032-.895-.077-1.174-.142-2.315-.489-3.369-1.026-1.014-.513-1.943-1.178-2.756-1.972-.762-.78-1.409-1.665-1.92-2.628-.478-.922-.818-1.908-1.01-2.928l-.114-.741c-.037-.245-.034-.496-.052-.738-.023-.481-.015-.963.024-1.443.143-1.616.655-3.178 1.496-4.566.84-1.388 1.989-2.564 3.355-3.44.919-.606 1.93-1.061 2.993-1.347l.612-.165.557-.092.475-.08c.147-.015.282-.018.401-.027l.542-.04c.06-.002.12-.007.178-.015z"/>
    <path fill="#263238" d="M94.707 118.384l-39.829-.025c-2.3 0-4.506-.915-6.133-2.542-1.626-1.627-2.54-3.833-2.54-6.134l.019-99.877c0-1.14.224-2.269.66-3.321.437-1.053 1.077-2.01 1.883-2.815.806-.806 1.764-1.445 2.817-1.88 1.053-.435 2.182-.659 3.322-.657l39.832.021c2.3.002 4.507.917 6.133 2.544 1.627 1.628 2.54 3.835 2.54 6.135l-.021 99.865c.001 1.141-.222 2.271-.658 3.325-.436 1.055-1.075 2.013-1.881 2.819-.807.807-1.765 1.447-2.819 1.883-1.054.436-2.184.66-3.325.659z"/>
    <path fill="#fff" d="M94.692 4.7h-7.72c-.51.012-.993.225-1.345.592-.352.368-.544.86-.533 1.369v1.4c.006.25-.038.501-.13.736-.09.235-.227.45-.401.632-.174.182-.382.327-.613.429-.23.102-.479.157-.73.162H68.164c-.508-.012-.991-.225-1.342-.592-.352-.368-.543-.86-.532-1.368V6.642c.01-.508-.181-1-.532-1.367-.352-.368-.834-.58-1.343-.593h-9.472c-.799 0-1.59.157-2.327.462-.738.305-1.408.752-1.973 1.317-.565.564-1.013 1.234-1.319 1.971-.305.738-.463 1.528-.464 2.326l-.018 97.473c0 1.612.64 3.157 1.778 4.297 1.14 1.14 2.684 1.781 4.295 1.783l39.756.021c.798.001 1.588-.156 2.326-.46.737-.305 1.407-.753 1.972-1.317s1.012-1.233 1.318-1.971c.306-.737.463-1.527.463-2.325l.018-97.476c.001-.799-.155-1.59-.46-2.328-.305-.738-.752-1.409-1.316-1.974-.565-.565-1.235-1.013-1.973-1.318-.738-.306-1.528-.463-2.327-.462z"/>
    <path fill="#263238" d="M53.994 27.309h-.56v-.147h1.288v.147h-.56v1.445h-.168V27.31zM54.71 28.157c0-.121.036-.24.103-.34.067-.101.163-.18.275-.226.112-.046.235-.058.354-.035.119.024.228.082.314.168.085.085.144.195.167.314.024.118.012.241-.035.353-.046.112-.124.208-.225.275-.1.067-.22.104-.34.104-.082.003-.163-.01-.239-.04-.076-.03-.145-.075-.202-.132-.058-.058-.103-.127-.132-.203-.03-.075-.044-.157-.04-.238zm1.053 0c-.003-.088-.032-.172-.084-.244-.051-.07-.122-.125-.205-.156-.082-.031-.171-.037-.257-.018-.085.02-.163.064-.224.128-.06.063-.1.143-.116.23-.016.086-.006.175.03.255.034.081.092.15.165.198.074.048.16.073.247.072.06.001.12-.01.177-.034.055-.023.106-.057.147-.101.042-.044.074-.096.095-.152.02-.057.03-.118.026-.178zM57.347 27.067v1.687h-.153v-.236c-.048.08-.116.144-.197.187-.082.044-.173.065-.265.061-.163 0-.319-.064-.434-.179-.114-.115-.179-.27-.179-.433 0-.163.065-.318.18-.433.114-.115.27-.18.433-.18.09-.002.18.018.259.06.08.042.148.104.197.18v-.72l.16.006zm-.159 1.09c-.004-.087-.034-.17-.085-.24-.051-.07-.122-.124-.203-.155-.082-.03-.17-.036-.255-.016-.085.02-.162.063-.222.126s-.1.142-.116.227c-.015.086-.005.174.03.254.033.08.09.148.163.196.072.048.157.073.244.073.06.001.12-.01.176-.034.056-.023.106-.057.148-.101.041-.044.074-.096.094-.152.021-.057.03-.118.026-.178zM58.7 28.013v.741h-.146v-.187c-.045.067-.107.121-.18.156s-.153.05-.234.044c-.27 0-.438-.141-.438-.35 0-.208.12-.34.463-.34h.389v-.07c0-.043-.009-.085-.026-.125-.017-.039-.043-.074-.075-.103-.031-.029-.069-.05-.11-.064-.04-.014-.083-.018-.126-.014-.145-.002-.286.048-.398.14l-.074-.119c.139-.109.311-.166.487-.162.062-.006.124 0 .183.021.059.02.113.053.157.096.045.044.08.096.102.154.022.058.031.12.027.182zm-.146.383V28.2h-.374c-.233 0-.306.092-.306.214 0 .123.113.224.306.224.08.004.159-.017.226-.06.067-.044.119-.107.148-.182zM60.122 27.569l-.613 1.341c-.101.233-.227.307-.398.307-.056.003-.112-.005-.165-.024-.052-.019-.1-.048-.141-.087l.073-.119c.029.03.063.053.101.068.038.016.079.024.12.024.107 0 .177-.052.248-.202l.052-.117-.536-1.194h.168l.45 1.017.481-1.014h.16zM72.253 15.959h.496V17.7h1.078v.407h-1.574v-2.15zM74.017 15.959c0-.039.009-.076.025-.111s.04-.066.068-.09c.03-.026.063-.045.1-.056.036-.011.075-.014.113-.01.037-.005.075-.002.111.008.037.01.07.029.1.053.028.024.051.054.068.088.016.034.026.07.027.109-.017.066-.055.125-.109.166-.053.043-.12.065-.188.065s-.134-.023-.188-.065c-.054-.041-.092-.1-.109-.166l-.018.009zm.058.496h.477v1.654h-.477v-1.654zM74.84 17.955l.16-.346c.173.105.37.16.573.163.22 0 .306-.062.306-.153 0-.27-.995 0-.995-.653 0-.306.281-.536.762-.536.222-.004.44.046.637.147l-.159.34c-.146-.081-.31-.124-.478-.122-.214 0-.306.067-.306.153 0 .282.998 0 .998.658 0 .306-.284.527-.78.527-.25.005-.498-.056-.717-.178zM77.695 18.029c-.117.073-.252.11-.39.104-.08.01-.163.003-.241-.023-.078-.026-.149-.07-.208-.126-.059-.057-.104-.127-.132-.204-.028-.077-.039-.16-.03-.241v-.69h-.255v-.358h.254v-.4h.481v.4h.41v.359h-.41v.67c-.004.029-.001.058.008.085.009.027.023.052.043.073.02.02.044.037.07.047.027.01.056.015.084.013.07 0 .137-.02.193-.061l.123.352zM95.816 15.775c0 .027-1.004.055-2.242.067-1.237.012-2.244 0-2.244-.03 0-.031 1.004-.055 2.245-.068 1.24-.012 2.241.003 2.241.03zM95.825 16.923c0 .025-1.001.055-2.242.068-1.24.012-2.245 0-2.245-.03 0-.032 1.005-.056 2.245-.068 1.24-.013 2.242.003 2.242.03zM95.835 18.075c0 .024-1.001.055-2.242.064-1.24.01-2.242 0-2.245-.027-.003-.028 1.005-.059 2.245-.068 1.24-.009 2.242 0 2.242.03zM53.908 18.409c-.014 0-.028-.003-.041-.008-.013-.005-.025-.013-.035-.023l-.968-.956c-.01-.01-.019-.023-.024-.036-.005-.014-.008-.029-.007-.043 0-.03.013-.057.034-.077l.965-.937c.02-.016.047-.024.074-.022.027.002.052.014.07.033.02.019.03.044.032.071.002.027-.007.053-.023.074l-.889.86.889.88c.015.015.025.034.03.055.004.021.002.043-.006.063-.009.02-.023.036-.04.048-.019.012-.04.018-.06.018zM60.961 37.044c0 .325-.233.518-.612.518h-.405v.478h-.165v-1.513h.567c.383 0 .615.196.615.517zm-.159 0c0-.241-.16-.38-.462-.38h-.402v.757h.401c.304 0 .463-.138.463-.377zM61.818 36.894v.15h-.037c-.054-.002-.108.008-.158.029-.05.02-.094.052-.131.092-.036.04-.064.087-.08.14-.016.05-.02.105-.014.159v.579h-.153v-1.136h.147v.223c.04-.078.1-.142.176-.184.077-.042.164-.06.25-.052zM61.972 37.473c0-.114.034-.226.097-.321.064-.095.154-.17.26-.213.106-.044.222-.056.334-.033.113.022.216.077.297.158.08.081.136.184.158.296.023.113.011.23-.033.335-.044.106-.118.196-.213.26-.095.063-.207.097-.322.097-.076.003-.153-.01-.225-.038-.071-.028-.136-.07-.19-.125-.055-.054-.097-.119-.125-.19-.029-.072-.041-.149-.038-.226zm1.001 0c-.004-.082-.031-.162-.08-.23-.049-.066-.116-.118-.193-.147-.078-.029-.162-.035-.243-.016-.08.018-.154.06-.211.12-.058.06-.096.134-.11.216-.016.081-.006.165.026.241.032.077.087.142.156.187.069.046.15.07.233.07.057.001.114-.01.167-.032.052-.022.1-.054.14-.096.04-.041.07-.09.09-.144.02-.054.029-.111.025-.169zM63.031 38.398l.055-.116c.05.04.114.061.178.058.12 0 .187-.074.187-.214V36.9h.153v1.225c.006.045.002.092-.012.135-.014.044-.038.084-.07.117-.032.033-.07.06-.114.075-.043.016-.089.023-.135.019-.086.003-.172-.023-.242-.074zm.386-1.853c0-.03.013-.057.034-.078.022-.02.05-.032.08-.032.028 0 .056.011.076.031.02.02.033.047.034.076 0 .015-.002.03-.008.043-.005.014-.013.027-.024.037-.01.01-.022.02-.036.025-.013.006-.028.009-.042.009-.03 0-.058-.012-.08-.032-.02-.021-.033-.05-.034-.079zM65.025 37.52h-.959c.003.055.017.109.041.159.025.05.059.094.1.131.042.037.09.065.143.083.052.018.108.025.163.021.066.003.13-.01.19-.035.061-.025.115-.063.16-.111l.085.097c-.054.062-.122.111-.198.143-.076.033-.157.048-.24.044-.078.005-.156-.007-.23-.034-.073-.027-.14-.07-.196-.124-.056-.054-.1-.12-.13-.192-.03-.072-.043-.15-.041-.228-.004-.076.007-.15.033-.221.026-.07.066-.135.118-.19.052-.054.115-.097.184-.126.07-.029.144-.043.22-.042.075-.002.15.012.218.041.07.03.132.072.184.127.052.054.092.119.118.19.025.07.036.145.03.22l.007.046zm-.953-.114h.806c-.01-.1-.055-.194-.13-.263-.075-.068-.172-.106-.273-.106-.101 0-.199.038-.273.106-.075.069-.121.162-.13.263zM65.224 37.473c-.003-.077.01-.154.039-.226.029-.072.072-.137.127-.191.055-.055.12-.097.192-.125.072-.028.15-.04.227-.037.087-.004.174.014.253.053.078.04.145.098.194.17l-.117.08c-.035-.054-.085-.098-.143-.127-.058-.03-.122-.044-.187-.041-.111.01-.215.06-.29.142-.076.082-.118.19-.118.3 0 .112.042.22.118.301.075.082.179.133.29.142.064.004.129-.01.187-.039.058-.029.107-.072.143-.126l.117.08c-.049.072-.116.131-.194.17-.079.04-.166.058-.253.053-.078.003-.155-.01-.227-.037-.072-.028-.137-.07-.192-.125-.055-.054-.098-.12-.127-.19-.029-.073-.042-.15-.04-.227zM67.169 37.982c-.068.055-.154.083-.242.08-.044.003-.089-.003-.13-.018-.043-.015-.08-.04-.112-.071-.032-.032-.056-.07-.071-.111-.015-.042-.021-.087-.018-.131v-.699h-.205v-.128h.205v-.248h.153v.248h.347v.128h-.347v.68c-.004.028-.002.055.006.082.008.026.022.05.041.07.02.02.042.036.068.046.026.01.054.013.081.01.062.003.122-.018.169-.058l.055.12zM67.91 37.283c-.002-.103.018-.206.058-.302.04-.096.1-.182.174-.254.074-.072.163-.128.26-.165.097-.036.2-.052.304-.047.102-.005.204.013.3.05.094.039.18.096.251.17l-.1.101c-.06-.059-.129-.105-.206-.136-.077-.031-.16-.046-.242-.045-.082 0-.164.017-.24.048-.076.032-.146.078-.204.136-.058.059-.104.128-.136.204-.032.076-.048.158-.048.24 0 .083.016.164.048.24.032.077.078.146.136.204.058.059.128.105.204.136.076.032.158.048.24.048.083.002.165-.013.242-.044.077-.031.147-.078.205-.137l.101.102c-.071.074-.157.132-.253.17-.096.04-.198.057-.301.053-.103.004-.207-.013-.303-.05-.097-.037-.185-.093-.26-.165-.074-.073-.133-.16-.172-.255-.04-.095-.06-.198-.058-.302zM69.579 36.45h.153v1.605h-.153V36.45zM70.115 36.545c0-.029.012-.057.032-.078.021-.02.05-.032.078-.032.015 0 .03.002.043.007.013.005.026.013.036.023.01.01.02.022.025.035.006.014.01.028.01.042.002.017.001.033-.003.049s-.012.03-.023.043c-.01.013-.024.023-.038.03-.016.007-.032.01-.048.01-.017 0-.033-.003-.048-.01s-.028-.017-.039-.03c-.01-.012-.018-.027-.022-.043-.005-.016-.006-.032-.003-.049v.003zm.034.359h.153v1.136h-.153v-1.136zM71.723 37.52h-.95c.003.055.017.109.042.159.024.05.058.094.1.131.04.037.09.065.142.083.052.018.108.025.163.021.066.002.13-.01.19-.035.061-.026.115-.064.16-.111l.085.097c-.055.062-.123.111-.2.144-.075.032-.158.047-.24.043-.079.005-.157-.007-.23-.034-.074-.027-.14-.07-.197-.124-.056-.054-.1-.12-.13-.192-.03-.072-.043-.15-.04-.228-.005-.076.006-.151.032-.222.027-.07.067-.135.12-.19.052-.054.115-.097.184-.126.07-.029.145-.043.22-.041.076-.002.15.012.22.041.069.03.132.072.183.127.052.054.092.119.118.19.025.07.036.145.03.22l-.002.046zm-.95-.114h.806c-.01-.1-.055-.194-.13-.263-.074-.068-.172-.106-.273-.106-.101 0-.199.038-.273.106-.075.069-.12.162-.13.263zM73.082 37.369v.658h-.153v-.643c.01-.048.008-.098-.005-.145-.014-.047-.038-.09-.072-.126-.034-.035-.075-.063-.121-.079-.047-.016-.096-.021-.145-.014-.054-.004-.109.004-.16.023-.05.02-.097.05-.134.09-.038.038-.067.085-.085.137-.018.051-.024.106-.019.16v.597h-.16v-1.136h.148v.209c.046-.072.11-.13.186-.168.076-.038.16-.055.246-.05.065-.006.13.002.192.024.061.023.117.058.162.105.046.047.08.103.101.165.02.062.028.128.02.193zM74.1 37.982c-.069.055-.155.083-.242.08-.045.003-.09-.003-.131-.018-.042-.015-.08-.04-.112-.071-.031-.032-.055-.07-.07-.111-.016-.042-.022-.087-.018-.131v-.699h-.206v-.128h.206v-.248h.153v.248h.346v.128h-.346v.68c-.005.028-.003.055.006.082.008.026.022.05.04.07.02.02.043.036.069.046.026.01.053.013.08.01.062.002.122-.018.17-.058l.055.12z"/>
    <path fill="#0097C2" d="M57.022 37.384c0 .259-.076.512-.22.727-.144.215-.348.383-.587.482-.239.098-.502.124-.755.074-.254-.05-.487-.175-.67-.358-.183-.183-.307-.416-.358-.67-.05-.253-.025-.516.075-.755.099-.239.266-.443.481-.587.215-.144.468-.22.727-.22.346 0 .68.137.924.383.246.245.383.578.383.924z"/>
    <path fill="#fff" d="M55.571 37.789c-.019 0-.037-.007-.052-.019l-.358-.327c-.015-.015-.023-.035-.023-.055 0-.02.008-.04.023-.055.006-.008.015-.014.024-.018.01-.004.02-.006.03-.006.01 0 .02.002.028.006.01.004.018.01.025.018l.306.275.573-.612c.006-.01.014-.017.024-.022.01-.006.02-.01.03-.01.012-.001.023 0 .033.004.01.003.02.009.028.016.008.008.014.017.018.027.004.01.006.021.006.032s-.004.022-.008.032c-.005.01-.012.018-.021.025l-.612.658c-.009.011-.02.02-.033.025-.013.006-.027.008-.041.006z"/>
    <path fill="#0097C2" d="M97.194 42.68s.098 0 .285-.037c.277-.052.535-.179.744-.368.17-.15.307-.335.4-.543.092-.208.139-.433.136-.66v-1.88-2.353-1.344-.714c.01-.244 0-.489-.027-.732-.048-.25-.156-.484-.317-.681-.16-.197-.367-.352-.602-.449-.248-.098-.515-.14-.781-.122h-4.447l-39.507.024c-.23 0-.455.053-.661.153-.206.1-.386.246-.528.426-.14.18-.239.39-.288.612-.034.231-.046.465-.033.699v6.333c-.006.22.035.438.12.64.086.2.214.38.376.526.162.146.353.256.56.323.211.06.43.082.65.067h9.8l17.763.015 11.975.028h4.103-.848l-3.255.015-11.975.025-17.763.018h-9.8c-.235.015-.47-.01-.696-.074-.229-.073-.44-.195-.618-.356-.179-.162-.32-.36-.417-.58-.093-.223-.139-.461-.135-.702v-6.272c-.011-.245 0-.49.037-.732.081-.373.287-.707.584-.946.297-.24.667-.37 1.048-.371l39.508.021h4.447c.28-.016.56.029.82.132.246.108.462.274.629.483.167.21.28.457.33.72.03.249.04.498.028.748v6.29c0 .233-.049.463-.145.675-.097.211-.239.4-.416.55-.216.189-.48.314-.762.362-.071.012-.143.018-.215.018l-.107.013z"/>
    <path fill="#E0E0E0" d="M74.984 39.914c0 .046-3.39.08-7.57.08s-7.577-.034-7.577-.08 3.39-.08 7.576-.08c4.187 0 7.571.037 7.571.08z"/>
    <path fill="#0097C2" d="M93.097 37.47c0 .015-.006.029-.016.04l-.478.472c-.01.01-.025.016-.04.016-.014 0-.028-.006-.04-.016l-.468-.484c-.01-.01-.016-.025-.015-.04 0-.014.006-.028.017-.038.01-.01.025-.016.04-.016.014 0 .028.007.038.017l.429.444.44-.444c.01-.01.025-.015.039-.015.014 0 .028.005.038.015.007.007.011.014.014.023.003.008.003.017.002.026z"/>
    <path fill="#263238" d="M59.779 49.172v-.866h.16v.86c0 .359.168.524.462.524.294 0 .465-.165.465-.524v-.86h.138v.866c0 .165-.066.323-.182.44-.117.117-.275.182-.44.182-.165 0-.323-.065-.44-.182-.116-.117-.181-.275-.181-.44h.018zM62.608 49.252c.004.076-.008.152-.034.223-.027.071-.069.136-.122.19-.053.055-.117.097-.188.126-.07.028-.146.042-.222.04-.083.003-.166-.015-.24-.052-.074-.037-.138-.092-.186-.16v.613h-.153v-1.559h.153v.224c.046-.074.111-.134.188-.175.077-.041.163-.061.25-.058.076 0 .151.014.221.044s.133.074.185.129c.052.055.092.12.117.192.026.071.037.147.032.223zm-.153 0c-.003-.084-.03-.165-.079-.233s-.116-.12-.194-.15c-.079-.03-.164-.035-.245-.017-.082.018-.156.06-.214.12-.058.061-.097.137-.112.22-.015.082-.005.167.028.244.033.076.088.142.158.188.07.045.152.07.236.069.057 0 .114-.01.167-.032.053-.022.1-.055.14-.096.04-.042.07-.09.09-.145.02-.053.029-.11.025-.168zM63.96 48.214v1.605h-.148v-.224c-.045.075-.11.136-.187.177-.077.042-.163.062-.25.059-.154 0-.301-.061-.41-.17-.108-.108-.17-.255-.17-.409 0-.153.062-.3.17-.41.109-.108.256-.169.41-.169.085-.003.169.016.245.055.075.04.14.098.186.169v-.683h.153zm-.15 1.038c-.004-.083-.032-.163-.08-.23-.05-.067-.116-.118-.194-.147-.077-.03-.162-.035-.242-.017-.081.019-.155.06-.212.12-.057.06-.096.135-.11.216-.016.082-.006.166.026.242.033.076.087.141.156.187.069.046.15.07.233.07.057.001.114-.01.167-.032.053-.022.1-.055.14-.096.04-.042.07-.09.09-.145.02-.053.029-.11.025-.168zM65.246 49.114v.705h-.148v-.175c-.042.063-.101.114-.17.147-.069.033-.145.047-.222.04-.257 0-.413-.135-.413-.331s.113-.322.438-.322h.361v-.07c0-.196-.11-.306-.306-.306-.139-.002-.273.046-.38.135l-.067-.117c.131-.104.295-.158.462-.153.06-.006.121 0 .178.021.057.02.109.053.152.096.042.043.075.095.094.152.02.057.027.118.02.178zm-.154.365v-.187h-.355c-.22 0-.306.085-.306.205 0 .12.107.211.288.211.079.008.158-.01.225-.051.068-.042.12-.104.148-.178zM66.262 49.751c-.067.055-.152.083-.239.08-.044.004-.09-.002-.132-.017-.042-.015-.08-.04-.112-.07-.032-.032-.056-.07-.072-.112-.015-.042-.021-.087-.018-.132v-.69h-.205v-.128h.205v-.248h.154v.248h.346v.129h-.346v.68c-.004.027-.002.054.007.08.008.027.022.05.04.07.02.02.043.036.068.046.026.01.053.014.08.012.062.002.122-.018.169-.058l.055.11zM67.49 49.313h-.952c.003.056.017.11.041.16.025.05.058.094.1.131.041.037.09.065.142.083.053.018.109.025.164.021.065.003.13-.01.19-.035.061-.025.115-.063.16-.112l.085.098c-.055.062-.122.111-.198.143-.076.033-.158.048-.24.044-.08.007-.16-.003-.234-.03-.076-.025-.145-.067-.202-.122-.058-.054-.104-.12-.134-.194-.03-.074-.045-.153-.043-.233 0-.147.059-.288.163-.392.104-.104.245-.162.392-.162.147 0 .288.058.392.162.104.104.162.245.162.392 0 0 .012.015.012.046zm-.952-.113h.808c0-.107-.042-.21-.118-.286-.076-.076-.179-.118-.286-.118-.107 0-.21.042-.286.118-.076.076-.118.179-.118.286zM69.58 48.823c0 .325-.233.518-.613.518h-.404v.478H68.4v-1.513h.567c.389 0 .612.196.612.517zm-.16 0c0-.242-.159-.38-.462-.38h-.401v.757h.41c.306 0 .462-.138.462-.377h-.009zM70.449 48.673v.15h-.037c-.054-.003-.108.007-.158.027s-.096.052-.132.092c-.037.04-.064.088-.08.14-.016.052-.02.107-.013.16v.58h-.144v-1.137h.147v.224c.039-.076.099-.14.173-.181.074-.042.16-.061.244-.055zM71.705 49.313h-.953c.003.056.017.11.041.16.025.05.059.095.1.131.042.037.09.065.143.083.052.018.108.025.163.021.066.003.13-.01.19-.035.061-.025.115-.063.16-.112l.085.098c-.054.062-.122.11-.198.143-.076.033-.158.048-.24.044-.078.005-.156-.007-.23-.034-.073-.027-.14-.07-.196-.124-.056-.054-.1-.12-.13-.192-.03-.073-.043-.15-.041-.229-.004-.075.007-.15.033-.22.026-.07.066-.135.118-.19.052-.054.115-.097.184-.126.07-.029.144-.043.22-.042.075-.002.15.012.219.041.069.03.131.072.183.127.052.054.092.119.118.19.025.07.036.145.03.22v.046zm-.953-.113h.806c-.01-.1-.055-.195-.13-.263-.075-.068-.172-.106-.273-.106-.101 0-.199.038-.273.106-.075.069-.121.162-.13.263zM71.86 49.69l.071-.12c.118.084.26.128.404.126.215 0 .306-.073.306-.187 0-.306-.738-.06-.738-.511 0-.187.163-.325.45-.325.143-.003.283.034.405.107l-.067.123c-.1-.067-.218-.101-.337-.098-.206 0-.307.08-.307.19 0 .306.735.073.735.511 0 .196-.171.325-.468.325-.162.002-.321-.047-.453-.141zM74.066 49.313h-.952c.003.056.018.11.042.16.025.05.059.095.1.131.043.037.091.065.144.083.053.018.108.025.164.021.065.003.13-.01.189-.035.06-.025.113-.063.157-.112l.089.098c-.084.086-.191.146-.309.171-.117.026-.24.016-.351-.027-.112-.044-.209-.12-.278-.217-.07-.098-.109-.214-.113-.334 0-.147.059-.288.163-.392.104-.104.245-.162.392-.162.147 0 .288.058.391.162.105.104.163.245.163.392 0 0 .01.03.01.061zm-.952-.113h.808c0-.107-.043-.21-.118-.286-.076-.076-.179-.118-.286-.118-.107 0-.21.042-.286.118-.076.076-.118.179-.118.286zM75.429 49.16v.659h-.153v-.644c.01-.048.008-.097-.006-.144-.013-.048-.038-.091-.071-.127-.034-.035-.075-.063-.122-.079-.046-.016-.096-.02-.144-.014-.055-.004-.109.004-.16.024-.05.02-.097.05-.135.088-.038.04-.067.087-.085.138-.017.051-.024.106-.018.16v.613h-.153v-1.136h.147v.208c.046-.072.11-.13.186-.167.076-.039.16-.056.245-.05.064-.006.127.003.186.025.06.022.114.056.158.101.045.045.08.1.1.159.022.06.03.123.025.186zM76.446 49.751c-.069.055-.155.083-.242.08-.045.004-.09-.002-.132-.017-.042-.015-.08-.04-.112-.07-.032-.032-.057-.07-.072-.112-.016-.042-.022-.087-.018-.132v-.69h-.202v-.128h.202v-.248h.156v.248h.346v.129h-.346v.68c-.004.027-.002.055.006.081.008.027.022.05.04.07.02.021.043.036.069.046.026.01.054.014.081.01.061.003.121-.018.169-.057l.055.11zM77.582 49.114v.705h-.147v-.175c-.043.063-.102.113-.17.146-.07.033-.146.047-.222.04-.257 0-.417-.134-.417-.33s.114-.322.441-.322h.362v-.07c0-.196-.11-.306-.322-.306-.138-.002-.273.045-.38.135l-.07-.117c.132-.103.295-.157.463-.153.061-.01.124-.005.183.014.06.02.114.052.159.095.044.043.078.096.1.155.02.059.027.121.02.183zm-.153.365v-.187h-.359c-.22 0-.29.085-.29.205 0 .12.107.211.287.211.077.005.154-.015.219-.056.064-.041.115-.102.143-.173zM78.599 49.751c-.069.055-.154.083-.242.08-.045.004-.09-.002-.132-.017-.042-.015-.08-.04-.112-.07-.032-.032-.057-.07-.072-.112-.016-.042-.022-.087-.018-.132v-.69h-.202v-.128h.202v-.248h.156v.248h.346v.129h-.346v.68c-.004.027-.002.055.006.081.008.027.022.05.041.07.02.021.042.036.068.046.026.01.054.014.081.01.062.003.122-.018.169-.057l.055.11zM78.84 48.324c0-.023.006-.045.018-.064.013-.019.03-.034.05-.043.021-.009.044-.012.066-.008.022.004.043.015.06.03.015.016.026.037.031.059.005.022.003.045-.006.066-.008.02-.023.038-.042.05-.018.013-.04.02-.063.02-.03 0-.058-.011-.079-.032-.021-.02-.033-.049-.034-.078zm.038.358h.153v1.136h-.153v-1.136zM79.343 49.252c0-.114.033-.226.097-.321.064-.096.154-.17.26-.214.106-.043.222-.055.334-.032.112.022.216.077.297.158.08.08.136.184.158.296.022.112.01.229-.033.335-.044.105-.118.196-.213.26-.095.063-.207.097-.322.097-.077.003-.153-.01-.225-.038-.071-.028-.136-.07-.19-.125-.055-.054-.098-.12-.126-.19-.028-.072-.04-.149-.037-.226zm1 0c-.003-.083-.03-.162-.08-.23-.048-.066-.115-.118-.192-.147-.078-.03-.162-.035-.243-.017-.08.019-.154.06-.211.12-.058.06-.096.135-.111.217-.015.081-.006.165.027.241.032.076.087.141.156.187.069.046.15.07.232.07.058.001.114-.01.167-.032.053-.022.101-.055.14-.096.04-.041.071-.09.091-.144.02-.054.028-.112.025-.169zM81.86 49.16v.659h-.153v-.644c.01-.048.008-.097-.006-.144-.013-.048-.038-.091-.071-.127-.034-.035-.076-.063-.122-.079s-.096-.02-.144-.014c-.055-.004-.11.004-.16.024s-.097.05-.135.088c-.038.04-.067.087-.085.138-.017.051-.024.106-.018.16v.613h-.153v-1.136h.147v.208c.046-.072.11-.13.186-.167.076-.039.16-.056.245-.05.063-.006.127.003.186.025.06.022.114.056.158.101.045.045.08.1.1.159.022.06.03.123.025.186z"/>
    <path fill="#0097C2" d="M57.022 49.163c0 .259-.076.512-.22.727-.144.215-.348.382-.587.481-.239.1-.502.125-.755.075-.254-.05-.487-.175-.67-.358-.183-.183-.307-.416-.358-.67-.05-.253-.025-.516.075-.755.099-.24.266-.443.481-.587.215-.144.468-.22.727-.22.346 0 .68.137.924.383.246.245.383.577.383.924z"/>
    <path fill="#fff" d="M55.571 49.567c-.019 0-.037-.006-.052-.018l-.358-.328c-.015-.014-.023-.034-.023-.055 0-.02.008-.04.023-.055.014-.014.033-.022.053-.022.02 0 .04.008.054.022l.306.276.573-.613c.006-.009.014-.016.024-.022.01-.005.02-.009.03-.01.012 0 .023 0 .033.004.01.004.02.01.028.017.008.007.014.017.018.027.004.01.006.02.006.032 0 .01-.004.021-.008.031-.005.01-.012.018-.021.025l-.612.659c-.009.01-.02.02-.033.025-.013.005-.027.007-.041.005z"/>
    <path fill="#0097C2" d="M97.194 54.458s.098 0 .285-.036c.277-.052.535-.18.744-.368.17-.15.307-.335.4-.543.092-.208.139-.433.136-.66v-1.88-2.353-1.345-.713c.01-.244 0-.489-.027-.732-.048-.25-.156-.484-.317-.681-.16-.198-.367-.352-.602-.45-.248-.098-.515-.14-.781-.122h-4.447l-39.507.025c-.23 0-.455.052-.661.153-.206.1-.386.246-.528.426-.14.18-.239.39-.288.612-.034.231-.046.465-.033.699v6.327c-.006.22.035.437.12.64.086.2.214.379.376.525.162.147.353.257.56.323.211.06.43.083.65.068h9.8l17.763.015 11.975.028 3.255.015h1.136-1.136l-3.255.015-11.975.025-17.763.018h-9.8c-.235.015-.47-.01-.696-.073-.229-.074-.44-.196-.618-.357-.179-.162-.32-.36-.417-.58-.093-.222-.14-.461-.135-.702v-6.281c-.011-.245 0-.49.037-.732.081-.373.287-.707.584-.947.297-.239.667-.37 1.048-.37l39.508.021h4.447c.28-.016.56.029.82.132.246.108.462.273.629.483.167.21.28.457.33.72.03.248.04.498.028.748v6.29c0 .233-.049.463-.145.675-.097.211-.239.4-.416.55-.216.188-.48.313-.762.362-.071.012-.143.018-.215.018l-.107.012z"/>
    <path fill="#E0E0E0" d="M74.984 51.693c0 .046-3.39.08-7.57.08s-7.577-.034-7.577-.08 3.39-.08 7.576-.08c4.187 0 7.571.037 7.571.08z"/>
    <path fill="#0097C2" d="M93.097 49.249c0 .015-.006.029-.016.04l-.478.484c-.01.01-.025.015-.04.015-.014 0-.028-.005-.04-.015l-.468-.484c-.01-.01-.016-.025-.015-.04 0-.014.006-.028.017-.038.01-.01.025-.016.04-.016.014 0 .028.007.038.017l.429.444.44-.444c.01-.01.025-.015.039-.015.014 0 .028.005.038.015.01.01.015.023.016.037z"/>
    <path fill="#263238" d="M59.64 60.84c0-.103.02-.206.06-.301.04-.096.098-.183.173-.255.075-.072.163-.128.26-.164.097-.037.2-.053.304-.048.103-.004.205.014.3.052.096.038.183.095.255.169l-.105.1c-.058-.058-.128-.104-.205-.136-.077-.03-.159-.046-.242-.044-.166 0-.326.066-.444.184-.117.118-.184.277-.184.444 0 .166.067.326.184.444.118.118.278.184.444.184.083.001.166-.014.242-.045.077-.03.147-.077.205-.136l.105.101c-.073.074-.16.132-.255.17-.096.04-.2.057-.303.054-.103.004-.207-.013-.303-.05-.097-.037-.185-.094-.26-.166-.074-.072-.132-.158-.172-.254-.04-.096-.06-.199-.058-.302zM61.87 60.452v.15h-.036c-.054-.002-.108.007-.158.028-.05.02-.095.052-.131.092-.037.04-.064.088-.08.14-.016.051-.021.106-.014.16v.578h-.14v-1.139h.146v.224c.039-.076.098-.138.172-.18.074-.04.158-.06.242-.053zM63.13 61.077h-.953c.003.055.017.11.041.16.025.049.058.094.1.13.042.037.09.065.143.083.052.018.108.025.163.022.065.002.13-.01.19-.036.061-.025.115-.063.16-.111l.085.098c-.055.061-.122.11-.198.142-.076.033-.158.048-.24.044-.078.005-.156-.007-.23-.034-.073-.027-.14-.069-.196-.123-.056-.055-.1-.12-.13-.193-.03-.072-.043-.15-.041-.228-.004-.075.007-.15.033-.221.026-.07.066-.135.118-.19.052-.053.115-.096.184-.126.07-.029.144-.043.22-.042.074-.002.149.013.218.041.07.03.132.072.184.127.052.054.092.119.117.19.026.07.037.146.031.22v.047zm-.953-.114h.805c-.008-.1-.055-.194-.13-.263-.074-.068-.171-.106-.272-.106-.102 0-.199.038-.273.106-.075.069-.121.162-.13.263zM64.269 60.893v.704h-.147v-.174c-.043.063-.102.114-.17.147-.07.033-.146.046-.222.04-.258 0-.414-.135-.414-.331s.11-.307.438-.307h.361v-.07c0-.196-.11-.306-.306-.306-.138-.002-.273.046-.38.135l-.067-.117c.131-.103.295-.158.463-.153.058-.006.118.001.173.02.056.02.107.051.15.092.042.042.074.091.095.147.021.055.03.114.026.173zm-.154.364v-.186h-.355c-.223 0-.306.085-.306.205 0 .12.107.211.288.211.079.008.158-.01.226-.052.067-.041.119-.104.147-.178zM65.291 61.53c-.067.054-.152.082-.239.08-.044.004-.09-.002-.132-.017-.042-.015-.08-.04-.112-.07-.032-.033-.056-.07-.072-.113-.015-.042-.021-.087-.018-.131v-.69h-.205v-.128h.205v-.248h.153v.248h.347v.129h-.347v.667c-.003.027 0 .055.008.081.008.026.022.05.04.07.02.02.043.036.068.046.026.01.053.014.08.011.062.003.122-.018.169-.058l.055.123zM66.516 61.077h-.952c.003.055.017.11.041.16.025.05.058.094.1.13.042.037.09.066.143.084.052.017.108.025.163.02.066.003.13-.009.19-.034.061-.026.115-.064.16-.112l.085.098c-.054.062-.122.11-.198.143-.076.032-.158.047-.24.044-.08.007-.16-.003-.234-.03-.076-.026-.144-.067-.202-.122-.058-.055-.104-.121-.134-.195-.03-.073-.045-.152-.043-.232 0-.147.059-.288.163-.392.104-.104.245-.162.392-.162.147 0 .288.058.392.162.104.104.162.245.162.392 0 0 .012.03.012.046zm-.952-.113h.809c0-.108-.043-.21-.119-.286-.076-.076-.178-.119-.286-.119-.107 0-.21.043-.286.119-.075.076-.118.178-.118.286zM68.694 60.084v1.513h-.16V60.9h-.946v.698h-.153v-1.513h.163v.674h.946v-.674h.15zM69.037 61.03c0-.114.034-.226.098-.321.063-.095.154-.17.26-.213.105-.044.222-.056.334-.033.112.022.215.077.296.158.081.081.136.184.159.297.022.112.01.228-.033.334-.044.106-.118.196-.213.26-.096.063-.207.097-.322.097-.077.003-.153-.01-.225-.038-.07-.029-.136-.071-.19-.125-.054-.055-.097-.12-.125-.191-.028-.071-.041-.148-.039-.224zm1.002 0c-.004-.082-.032-.162-.08-.23-.049-.066-.116-.117-.194-.147-.077-.029-.161-.035-.242-.016-.08.018-.154.06-.212.12-.057.06-.096.135-.11.216-.015.081-.006.165.027.242.032.076.086.14.155.186.07.046.15.07.233.07.058.002.115-.009.168-.03.053-.023.1-.055.14-.097.04-.041.071-.09.09-.145.02-.054.029-.111.025-.168zM72.384 60.951v.658h-.153v-.658c0-.242-.12-.364-.324-.364-.054-.003-.107.006-.156.026-.05.02-.095.05-.131.09-.037.04-.064.086-.08.136-.017.051-.023.105-.016.158v.612h-.153v-.658c0-.242-.123-.364-.328-.364-.053-.003-.107.006-.156.026-.05.02-.094.05-.13.09-.037.04-.065.086-.081.136-.017.051-.022.105-.016.158v.612h-.162v-1.148h.147v.208c.044-.07.106-.128.18-.166.073-.039.156-.056.24-.051.083-.006.167.013.24.056.071.042.129.106.164.183.046-.077.112-.14.192-.182.079-.042.168-.062.258-.057.066-.007.132.002.194.025.062.024.117.06.162.11.045.047.079.105.098.169.018.063.023.13.011.195zM73.796 61.077h-.952c.003.055.017.11.041.16s.058.094.1.13c.041.037.09.066.142.084.053.017.109.025.164.02.065.003.13-.009.19-.034.061-.026.115-.064.16-.112l.085.098c-.055.062-.122.11-.198.143-.076.032-.158.047-.24.044-.078.004-.156-.007-.23-.034-.073-.028-.14-.07-.196-.124-.056-.055-.1-.12-.13-.193-.03-.072-.044-.15-.041-.228 0-.147.058-.288.162-.392.104-.104.245-.162.392-.162.147 0 .288.058.392.162.104.104.162.245.162.392 0 0-.003.03-.003.046zm-.952-.113h.808c0-.108-.042-.21-.118-.286-.076-.076-.179-.119-.286-.119-.107 0-.21.043-.286.119-.076.076-.118.178-.118.286zM75.264 61.03c.003.077-.008.153-.035.224-.027.071-.069.136-.122.19-.053.055-.117.097-.188.126-.07.028-.146.042-.222.04-.085.002-.17-.017-.245-.056-.076-.039-.14-.097-.187-.168v.634h-.153v-1.559h.147v.224c.046-.074.111-.135.188-.175.077-.041.163-.061.25-.058.076-.002.152.011.222.04.07.028.135.071.188.125.053.055.095.12.122.19.026.072.038.148.035.224zm-.153 0c-.004-.083-.031-.164-.08-.232s-.116-.12-.194-.15c-.079-.03-.164-.036-.245-.017-.082.018-.156.06-.214.12-.058.061-.097.137-.112.22-.015.082-.005.167.028.244.033.076.088.142.158.188.07.045.152.07.236.069.057 0 .114-.01.167-.032.053-.022.1-.055.14-.096.04-.042.07-.091.09-.145.02-.054.029-.111.026-.168zM76.43 60.893v.704h-.147v-.174c-.043.063-.102.113-.17.146-.07.033-.146.047-.222.04-.257 0-.416-.134-.416-.33s.113-.307.44-.307h.362v-.07c0-.196-.11-.306-.324-.306-.138-.002-.272.046-.377.134l-.07-.116c.131-.103.295-.157.462-.153.06-.009.121-.004.18.014.058.018.11.049.155.09.045.042.08.093.101.15.022.056.031.117.026.178zm-.153.364v-.187h-.358c-.22 0-.291.086-.291.206 0 .119.104.21.288.21.077.006.153-.014.218-.055s.115-.102.143-.174zM77.903 60.461v.998c.012.078.006.157-.019.232-.024.074-.066.142-.121.198-.056.055-.124.097-.198.121-.075.025-.154.031-.231.019-.192.008-.38-.054-.53-.175l.08-.116c.125.103.284.159.446.156.288 0 .42-.134.42-.413v-.147c-.05.071-.116.13-.193.168-.078.038-.164.056-.251.052-.146 0-.287-.058-.39-.161-.103-.104-.161-.244-.161-.39 0-.146.058-.286.161-.39.103-.103.244-.161.39-.161.088-.005.176.014.255.054.079.04.146.099.195.172v-.217h.147zm-.15.539c.002-.086-.02-.17-.067-.243-.046-.073-.112-.13-.19-.165-.08-.034-.167-.044-.251-.03-.085.016-.163.056-.225.116-.061.06-.103.137-.121.22-.018.085-.01.172.022.252.032.08.088.148.16.196.07.048.154.074.24.074.057.003.114-.005.167-.024.053-.02.102-.05.143-.09.04-.04.073-.087.094-.14.02-.053.03-.11.028-.166zM79.324 61.077h-.952c.003.055.017.11.041.16s.058.094.1.13c.041.037.09.066.142.084.053.017.108.025.164.02.065.003.13-.009.19-.034.06-.026.115-.064.159-.112l.086.098c-.055.062-.122.11-.198.143-.076.032-.158.047-.24.044-.08.007-.16-.003-.235-.03-.075-.026-.144-.067-.202-.122-.058-.055-.103-.121-.133-.195-.03-.073-.045-.152-.043-.232 0-.147.058-.288.162-.392.105-.104.246-.162.392-.162.147 0 .288.058.392.162.104.104.163.245.163.392 0 0 .012.03.012.046zm-.952-.113h.808c0-.108-.043-.21-.118-.286-.076-.076-.179-.119-.286-.119-.107 0-.21.043-.286.119-.076.076-.118.178-.118.286z"/>
    <path fill="#E0E0E0" d="M57.023 60.951c-.016 0 0-.116-.07-.306-.08-.275-.25-.515-.482-.683-.183-.132-.398-.21-.623-.228-.225-.017-.45.029-.651.131-.201.103-.37.26-.487.452-.118.192-.18.413-.18.639 0 .225.062.446.18.639.117.192.286.348.487.451.2.103.426.148.65.131.225-.017.441-.096.624-.227.232-.169.401-.409.481-.683.058-.197.055-.307.07-.307.026.108.026.22 0 .328-.062.3-.23.568-.471.756-.18.143-.394.237-.62.275-.227.037-.46.017-.676-.06-.268-.095-.5-.27-.665-.503-.165-.232-.253-.51-.253-.794 0-.285.088-.562.253-.795.164-.232.397-.408.665-.502.217-.077.449-.099.675-.062.227.037.44.131.62.273.242.19.41.459.473.76.024.103.024.211 0 .315z"/>
    <path fill="#E0E0E0" d="M97.194 66.237s.098 0 .285-.037c.277-.051.535-.178.744-.367.17-.15.307-.336.4-.543.092-.208.139-.433.136-.66v-1.878-2.355-1.345-.713c.01-.245 0-.49-.027-.732-.048-.25-.156-.484-.317-.681-.16-.198-.367-.352-.602-.45-.248-.098-.515-.14-.781-.122h-4.447l-39.507.025c-.23 0-.455.052-.661.153-.206.1-.386.245-.528.426-.14.18-.239.389-.288.612-.034.231-.046.465-.033.698v6.328c-.006.219.035.437.12.64.086.2.214.379.376.525.162.146.353.257.56.323.211.06.43.083.65.067h9.8l17.763.016 11.975.027h4.391-1.136l-3.255.016-11.975.024-17.763.019h-9.8c-.235.014-.47-.01-.696-.074-.229-.074-.44-.195-.618-.357-.179-.162-.32-.36-.417-.58-.093-.222-.14-.46-.135-.702v-6.266c-.011-.244 0-.49.037-.732.081-.372.287-.706.584-.946s.667-.37 1.048-.37l39.508.024h4.447c.28-.017.56.029.82.132.243.11.455.275.62.484.164.21.275.455.324.716.03.248.04.498.027.748v6.29c.002.233-.048.463-.145.674-.096.212-.238.4-.415.551-.216.188-.48.313-.763.362-.07.012-.142.018-.214.018l-.092.012z"/>
    <path fill="#E0E0E0" d="M74.984 63.472c0 .046-3.39.08-7.57.08s-7.577-.034-7.577-.08 3.39-.08 7.576-.08c4.187 0 7.571.037 7.571.08zM93.097 61.028c0 .014-.006.029-.016.04l-.478.496c-.01.01-.025.016-.04.016-.014 0-.028-.006-.04-.016l-.468-.484c-.01-.01-.016-.025-.015-.04 0-.014.006-.028.017-.038.01-.01.025-.016.04-.016.014 0 .028.007.038.017l.429.444.44-.444c.01-.01.025-.015.039-.015.014 0 .028.005.038.015.007.007.013.015.016.025z"/>
    <path fill="#263238" d="M60.961 72.117c0 .322-.233.518-.612.518h-.405v.477h-.165V71.6h.567c.383 0 .615.193.615.517zm-.159 0c0-.242-.16-.38-.462-.38h-.402v.757h.401c.304 0 .463-.138.463-.377zM61.818 71.976v.147h-.037c-.054-.002-.108.007-.158.027s-.096.052-.132.093c-.037.04-.064.087-.08.14-.016.051-.02.106-.013.16v.579h-.153v-1.146h.147v.22c.042-.074.104-.135.18-.174.076-.04.161-.055.246-.046zM61.972 72.543c0-.114.035-.226.099-.32.064-.096.154-.17.26-.213.106-.043.222-.054.334-.031.113.022.215.078.296.159.08.081.135.184.157.296.023.112.011.229-.033.334-.044.106-.118.196-.213.26-.095.063-.207.097-.321.097-.078.003-.154-.01-.226-.038-.072-.028-.137-.071-.192-.126-.054-.055-.097-.12-.124-.192-.028-.072-.04-.149-.037-.226zm1.001 0c-.004-.083-.032-.162-.081-.229-.05-.066-.117-.117-.194-.146-.078-.029-.162-.034-.242-.015-.08.018-.154.06-.211.12-.057.06-.095.135-.11.217-.014.08-.005.165.028.24.032.077.086.142.155.187.07.046.15.07.233.07.057.001.114-.01.167-.032.054-.022.102-.055.141-.097.04-.042.07-.091.09-.146.02-.054.028-.112.024-.169zM63.031 73.471l.055-.116c.051.04.114.06.178.058.12 0 .187-.074.187-.215v-1.225h.153v1.225c.006.046.002.092-.012.136-.014.044-.038.084-.07.117-.032.033-.07.059-.114.075-.043.016-.089.023-.135.019-.086.003-.172-.023-.242-.074zm.386-1.856c0-.014.004-.029.01-.042.006-.013.014-.025.025-.035.01-.01.023-.018.036-.023.014-.005.028-.008.042-.007.016-.003.032-.002.048.002.015.004.03.012.042.022.012.01.022.024.029.038.007.015.01.03.01.047 0 .016-.003.031-.01.046-.007.014-.017.027-.03.038-.011.01-.026.018-.041.022-.016.004-.032.005-.048.002-.014 0-.029-.002-.043-.007-.013-.005-.026-.014-.037-.024-.01-.01-.019-.022-.024-.036-.006-.014-.009-.028-.009-.043zM65.025 72.589h-.959c.003.055.017.11.041.16.025.05.059.094.1.13.042.038.09.066.143.084.052.018.108.025.163.021.066.002.131-.01.191-.036.06-.026.115-.065.158-.114l.086.101c-.084.08-.188.135-.302.159-.114.023-.232.013-.34-.028-.11-.042-.204-.113-.273-.206-.07-.093-.111-.204-.12-.32-.004-.075.007-.15.033-.22.026-.07.067-.135.118-.189.053-.054.115-.097.185-.125.069-.03.143-.043.218-.042.075-.001.15.013.219.042.069.028.131.071.183.125.052.054.092.119.118.189.025.07.036.145.032.22l.006.049zm-.953-.116h.806c-.01-.101-.055-.195-.13-.263-.074-.069-.172-.106-.273-.106-.101 0-.199.037-.273.106-.075.068-.121.162-.13.263zM65.224 72.543c-.002-.077.011-.154.04-.225.029-.071.072-.136.127-.19.055-.054.12-.096.192-.124.072-.028.149-.04.226-.037.087-.005.175.012.253.052.079.039.146.098.194.172l-.117.08c-.035-.055-.085-.1-.142-.13-.058-.03-.123-.044-.188-.042-.118 0-.231.047-.314.13-.084.083-.13.196-.13.314s.046.23.13.314c.083.083.196.13.314.13.064.003.129-.011.186-.04.058-.029.108-.072.144-.125l.117.076c-.049.074-.115.133-.194.173-.078.04-.165.058-.253.054-.078.003-.155-.01-.227-.038-.072-.028-.138-.071-.192-.126-.055-.054-.098-.12-.127-.192-.029-.072-.042-.148-.04-.226zM67.169 73.042c-.068.056-.154.085-.242.083-.044.003-.089-.003-.13-.018-.043-.015-.08-.04-.112-.07-.032-.032-.056-.07-.071-.112-.015-.042-.021-.087-.018-.131v-.69h-.205v-.128h.205v-.25h.153v.25h.347v.129h-.347v.68c-.004.027-.002.055.006.081.008.027.022.05.041.071.02.02.042.036.068.045.026.01.054.014.081.011.062.001.121-.02.169-.058l.055.107zM67.91 72.356c-.002-.104.018-.207.058-.303.04-.096.099-.182.173-.254.075-.073.164-.129.26-.166.098-.037.201-.053.305-.049.102-.004.204.014.3.052.094.038.18.095.251.169l-.1.104c-.06-.059-.129-.105-.206-.136-.077-.031-.16-.046-.242-.045-.166 0-.326.066-.444.184s-.184.277-.184.444c0 .166.066.326.184.444s.278.184.444.184c.083.003.166-.012.243-.044.078-.032.147-.08.204-.14l.101.104c-.071.074-.158.132-.253.17-.096.038-.198.055-.301.05-.103.005-.207-.011-.303-.048-.097-.037-.185-.093-.26-.165-.074-.072-.132-.158-.172-.254-.04-.095-.06-.198-.058-.301zM69.579 71.508h.153v1.605h-.153v-1.605zM70.115 71.615c0-.029.012-.056.033-.076.02-.02.048-.031.077-.031.016-.003.032-.002.047.002.016.004.03.012.042.022.013.01.022.024.03.038.006.015.01.03.01.047 0 .016-.004.031-.01.046-.008.014-.017.027-.03.038-.012.01-.026.018-.042.022-.015.004-.032.005-.047.002-.03 0-.057-.011-.078-.032-.02-.02-.032-.049-.032-.078zm.033.362h.153v1.136h-.153v-1.136zM71.723 72.589h-.95c.004.055.018.11.042.16.024.05.058.094.1.13.041.037.09.066.142.084.053.017.108.025.164.021.065.002.13-.01.19-.036.061-.026.115-.065.159-.114l.086.101c-.084.081-.19.137-.303.16-.115.025-.233.015-.343-.026-.109-.042-.204-.114-.273-.207-.07-.094-.111-.206-.12-.322-.002-.074.011-.147.038-.216s.068-.131.12-.184c.051-.052.113-.094.181-.122.069-.028.142-.042.216-.042.075-.001.149.013.218.042.07.029.132.071.183.126.052.054.092.118.118.188.026.07.037.145.032.22v.037zm-.95-.117h.806c-.009-.1-.055-.194-.13-.262-.074-.069-.171-.107-.273-.107-.1 0-.198.038-.273.107-.074.068-.12.162-.13.263zM73.082 72.454v.659h-.153v-.644c.01-.048.008-.097-.005-.144-.014-.048-.038-.09-.072-.127-.034-.035-.075-.062-.121-.079-.047-.016-.096-.02-.145-.014-.054-.004-.109.003-.16.023-.051.019-.098.05-.136.088-.038.04-.067.087-.084.139-.018.051-.024.106-.018.16v.598h-.16v-1.137h.148v.209c.046-.072.11-.13.186-.168.076-.038.16-.055.246-.05.065-.006.13.002.192.024.061.023.117.059.162.105.046.047.08.104.101.166.02.061.028.127.02.192zM74.1 73.042c-.069.056-.155.085-.242.083-.045.003-.09-.003-.131-.018-.042-.015-.08-.04-.112-.07-.031-.032-.055-.07-.07-.112-.016-.042-.022-.087-.018-.131v-.69h-.206v-.128h.206v-.25h.153v.25h.346v.129h-.346v.68c-.005.027-.003.055.006.081.008.027.022.05.04.071.02.02.043.036.069.045.026.01.053.014.08.011.062 0 .121-.02.17-.058l.055.107zM75.876 72.975v.138h-1.063v-.11l.63-.613c.172-.169.203-.273.203-.374 0-.178-.122-.285-.355-.285-.077-.004-.154.009-.226.038-.071.03-.135.074-.188.13l-.11-.094c.068-.074.151-.13.244-.169.093-.037.192-.054.292-.049.306 0 .502.156.502.41-.002.094-.026.184-.07.267-.042.082-.103.153-.178.208l-.514.506.833-.003z"/>
    <path fill="#E0E0E0" d="M57.023 72.457c-.016 0 0-.116-.07-.306-.08-.275-.25-.515-.482-.683-.183-.131-.398-.21-.623-.226-.225-.017-.45.029-.65.132-.2.102-.369.259-.486.45-.118.193-.18.414-.18.64 0 .225.062.446.18.638.117.192.285.348.486.451.2.103.425.149.65.132.225-.017.44-.095.623-.226.23-.17.4-.41.481-.683.059-.196.055-.306.07-.306.027.107.027.22 0 .327-.063.3-.23.568-.47.757-.181.142-.394.236-.621.274-.227.037-.459.017-.675-.06-.269-.095-.5-.271-.665-.504-.164-.232-.252-.51-.252-.794 0-.285.088-.563.252-.795.164-.233.396-.409.665-.504.216-.077.448-.098.675-.06.227.037.44.132.62.274.242.189.409.457.472.757.024.104.024.212 0 .315z"/>
    <path fill="#E0E0E0" d="M97.194 77.75c.096-.006.19-.017.285-.034.363-.072.69-.268.924-.555.233-.287.36-.646.356-1.016v-1.88-2.353-1.347-.714c.01-.243 0-.487-.028-.729-.048-.25-.157-.484-.317-.681-.16-.198-.367-.353-.601-.452-.248-.098-.515-.138-.781-.12h-4.447l-39.507.025c-.23-.001-.456.05-.662.15-.206.101-.386.248-.527.429-.14.18-.239.39-.288.612-.034.23-.046.463-.033.696v6.327c-.006.22.035.44.12.643.086.2.214.38.376.525.162.147.353.257.56.323.211.059.43.081.65.068h9.8l17.763.018 11.974.025 3.256.015h1.136-4.391l-11.975.024H53.274c-.235.014-.47-.012-.696-.076-.229-.073-.44-.194-.619-.355-.178-.161-.32-.359-.416-.58-.093-.222-.14-.462-.135-.704v-6.247c-.011-.244 0-.488.037-.73.082-.372.288-.706.584-.946.297-.24.667-.372 1.048-.373l39.508.024h4.447c.28-.015.56.03.82.135.247.107.463.272.63.482.167.21.28.458.33.722.03.246.039.496.027.744v6.293c0 .233-.05.463-.147.674-.096.212-.238.4-.414.552-.216.187-.48.31-.762.358-.071.012-.143.02-.215.021l-.107.006z"/>
    <path fill="#E0E0E0" d="M74.984 74.987c0 .043-3.39.08-7.57.08s-7.577-.037-7.577-.08c0-.043 3.39-.08 7.576-.08 4.187 0 7.571.037 7.571.08zM93.097 72.543c0 .015-.006.029-.015.04l-.478.48c-.005.007-.011.011-.018.014-.007.004-.014.005-.022.005-.007 0-.015-.001-.022-.005-.007-.003-.013-.007-.018-.013l-.468-.475c-.007-.005-.012-.011-.016-.018-.004-.007-.006-.015-.007-.023 0-.008.001-.016.004-.024.004-.007.008-.014.014-.02.006-.005.013-.01.02-.012.009-.002.017-.003.025-.002s.016.004.022.009c.007.004.013.01.017.017l.429.444.441-.444c.01-.01.024-.016.038-.016.015 0 .028.006.039.016.007.007.012.017.015.027z"/>
    <path fill="#263238" d="M61.044 84.227c0 .257-.193.404-.57.404h-.695v-1.516h.655c.337 0 .53.144.53.389.003.074-.017.148-.059.21-.04.062-.1.11-.17.136.089.013.17.059.227.128.058.07.087.159.082.249zm-1.106-.98v.55h.481c.242 0 .383-.094.383-.275 0-.18-.14-.275-.383-.275h-.48zm.944.964c0-.196-.144-.281-.41-.281h-.534v.57h.533c.267-.004.41-.093.41-.292v.003zM62.4 83.489v1.139h-.147v-.208c-.042.07-.103.127-.175.165-.072.038-.154.056-.235.052-.065.007-.131-.002-.193-.024-.061-.022-.117-.058-.163-.105-.047-.047-.082-.103-.103-.165-.022-.062-.03-.128-.022-.193v-.661h.153v.646c-.01.048-.008.098.006.145.013.047.038.09.071.126.034.036.075.063.122.08.046.015.096.02.144.013.054.003.108-.005.158-.025s.096-.051.133-.09c.037-.04.065-.087.082-.138.017-.052.022-.106.016-.16v-.613l.153.016zM63.785 83.489l-.57 1.274c-.095.223-.214.306-.377.306-.103.004-.203-.034-.278-.104l.073-.113c.027.027.059.049.094.063.035.015.073.023.111.022.104 0 .172-.046.236-.19l.052-.11-.508-1.136h.159l.429.968.428-.968.15-.012zM65.665 83.868h.153v.58c-.155.13-.352.198-.554.192-.109.014-.219.004-.324-.028-.104-.032-.201-.086-.283-.158-.082-.073-.148-.162-.193-.262-.045-.1-.069-.208-.069-.317 0-.11.024-.218.069-.318.045-.1.11-.189.193-.261.082-.073.179-.127.283-.16.105-.031.215-.04.324-.027.104-.005.207.012.303.05.097.037.184.094.258.167l-.099.101c-.06-.058-.132-.103-.21-.133-.078-.03-.162-.044-.246-.041-.166 0-.325.066-.443.183-.117.118-.183.277-.183.443 0 .166.066.326.183.443.118.117.277.183.443.183.141.006.28-.035.395-.116v-.52zM66.21 83.13c0-.029.012-.057.033-.078.02-.02.048-.032.078-.032.021 0 .043.007.06.019.019.012.033.029.041.05.009.02.01.041.007.063-.005.021-.015.04-.03.056-.016.016-.036.026-.057.03-.021.005-.044.002-.064-.006-.02-.008-.037-.022-.05-.04-.011-.019-.018-.04-.018-.062zm.034.359h.153v1.139h-.153v-1.14zM66.994 83.354v.135h.353v.125H67v1.01h-.156v-1.01h-.202v-.129h.202v-.14c-.005-.047 0-.094.016-.137.016-.044.042-.084.075-.116.033-.033.074-.057.118-.072.044-.014.091-.019.137-.012.082-.002.161.023.227.07l-.052.117c-.048-.04-.107-.06-.169-.059-.131.003-.202.077-.202.218zM68.152 84.558c-.068.054-.152.082-.239.08-.045.003-.09-.002-.132-.017-.042-.015-.08-.04-.112-.071-.032-.032-.056-.07-.072-.112-.015-.042-.022-.087-.018-.132v-.692h-.205v-.128h.205v-.249h.153v.249h.346v.128h-.337v.68c-.004.027-.002.055.006.082.008.026.022.05.041.07.02.02.043.036.069.046.025.01.053.013.08.01.062.003.122-.018.169-.058l.046.114z"/>
    <path fill="#E0E0E0" d="M57.023 83.97c-.016 0 0-.117-.07-.307-.08-.275-.25-.515-.482-.683-.183-.132-.398-.21-.623-.227-.225-.017-.45.028-.651.13-.201.103-.37.26-.487.452-.118.192-.18.414-.18.64 0 .225.062.446.18.638.117.193.286.349.487.451.2.103.426.149.65.132.225-.017.441-.096.624-.228.232-.168.401-.408.481-.683.058-.196.055-.306.07-.306.026.107.026.22 0 .327-.063.301-.23.57-.471.76-.18.141-.394.234-.62.271-.227.037-.46.017-.676-.06-.268-.094-.5-.27-.665-.502-.165-.233-.253-.51-.253-.795 0-.284.088-.562.253-.794.164-.233.397-.408.665-.503.217-.076.449-.097.675-.06.227.037.44.13.62.271.242.19.41.46.473.76.024.104.024.212 0 .316z"/>
    <path fill="#E0E0E0" d="M97.194 89.265s.098 0 .285-.034c.364-.071.69-.268.925-.556.233-.287.36-.647.355-1.018V85.78v-2.356-1.344-.714c.01-.244 0-.489-.028-.732-.047-.25-.155-.484-.316-.68-.16-.198-.367-.352-.602-.45-.248-.098-.515-.14-.781-.122h-4.447l-39.507.021c-.345.004-.677.124-.945.34-.268.216-.455.516-.532.852-.034.23-.046.465-.033.698v6.327c-.006.22.035.438.12.64.086.2.214.38.376.526.162.146.353.256.56.323.211.059.43.083.65.07h9.8l17.763.018 11.975.025h4.391-1.136l-3.255.015-11.975.025-17.763.018h-9.8c-.235.015-.47-.01-.696-.073-.227-.072-.437-.191-.615-.35-.178-.158-.321-.352-.42-.57-.093-.222-.139-.462-.135-.704v-6.281c-.011-.245 0-.49.037-.732.05-.246.154-.477.306-.677.157-.198.357-.359.584-.47.228-.11.477-.169.73-.17l39.508.025h4.447c.28-.017.56.028.82.131.246.108.461.274.628.484.167.21.28.457.33.72.031.248.04.498.028.747v6.3c0 .233-.05.462-.146.674-.097.211-.238.4-.414.551-.216.187-.48.311-.763.358-.07.014-.142.02-.214.019l-.095.003z"/>
    <path fill="#E0E0E0" d="M74.984 86.502c0 .043-3.39.08-7.57.08s-7.577-.037-7.577-.08c0-.042 3.39-.08 7.576-.08 4.187 0 7.571.035 7.571.08zM93.097 84.058c0 .014-.006.027-.016.037l-.478.484c-.01.01-.025.016-.04.016-.014 0-.028-.006-.04-.016l-.468-.484c-.01-.01-.016-.025-.015-.04 0-.014.006-.028.017-.038.01-.01.025-.016.04-.016.014 0 .028.007.038.017l.429.445.44-.445c.01-.01.025-.015.039-.015.014 0 .028.005.038.015.01.011.016.025.016.04z"/>
    <path fill="#0097C2" d="M96.4 102.701c.566-3.466-1.785-6.734-5.25-7.3-3.465-.567-6.734 1.784-7.3 5.249-.566 3.466 1.784 6.734 5.25 7.3 3.465.566 6.733-1.784 7.3-5.249z"/>
    <path fill="#fff" d="M90.123 103.484c-.04 0-.08-.016-.108-.045-.03-.028-.045-.067-.045-.108v-3.32c0-.04.016-.08.045-.108.028-.029.067-.045.108-.045.04 0 .08.016.108.045.029.029.045.068.045.108v3.32c0 .041-.016.08-.045.108-.029.029-.067.045-.108.045z"/>
    <path fill="#fff" d="M91.783 101.824h-3.32c-.04 0-.08-.016-.108-.045-.029-.028-.045-.067-.045-.108 0-.04.016-.079.045-.108.029-.029.068-.045.108-.045h3.32c.04 0 .08.016.108.045.029.029.045.068.045.108 0 .041-.016.08-.045.108-.028.029-.067.045-.108.045z"/>
    <path fill="#0097C2" d="M92.347 28.509l-.031.738.732-.098 1.7-1.681-.686-.686-1.715 1.727zM94.16 26.705l.664.668.101-.098c.041-.04.074-.087.096-.14.023-.053.034-.11.034-.166 0-.058-.011-.114-.034-.167-.022-.052-.055-.1-.096-.14l-.07-.067c-.04-.042-.087-.075-.14-.098-.052-.023-.11-.035-.167-.035-.057 0-.114.012-.166.035-.053.023-.1.056-.14.098l-.083.11z"/>
</svg>
